<?xml version="1.0" encoding="UTF-8"?>
<svg id="Layer_2" data-name="Layer 2" xmlns="http://www.w3.org/2000/svg" xmlns:xlink="http://www.w3.org/1999/xlink" viewBox="0 0 3343.42 806.04">
  <defs>
    <style>
      .cls-1 {
        fill: #00206f;
      }

      .cls-2 {
        fill: url(#linear-gradient-2);
      }

      .cls-3 {
        fill: url(#linear-gradient-3);
      }

      .cls-4 {
        fill: url(#linear-gradient);
      }
    </style>
    <linearGradient id="linear-gradient" x1="199.29" y1="204.84" x2="199.29" y2="821.54" gradientUnits="userSpaceOnUse">
      <stop offset=".54" stop-color="#0071bc"/>
      <stop offset="1" stop-color="#00206f"/>
    </linearGradient>
    <linearGradient id="linear-gradient-2" x1="927.2" y1="204.84" x2="927.2" y2="821.54" gradientUnits="userSpaceOnUse">
      <stop offset=".54" stop-color="#0071bc"/>
      <stop offset="1" stop-color="#00206f"/>
    </linearGradient>
    <linearGradient id="linear-gradient-3" x1="558.29" y1="56.33" x2="558.29" y2="773.44" gradientUnits="userSpaceOnUse">
      <stop offset="0" stop-color="#0071bc"/>
      <stop offset="1" stop-color="#00206f"/>
    </linearGradient>
  </defs>
  <g id="Layer_1-2" data-name="Layer 1">
    <g>
      <g>
        <path class="cls-4" d="M104.35,746.68c-15.23,26.38,3.81,59.36,34.27,59.36H39.63c-30.46,0-49.5-32.97-34.27-59.36l.73-1.26c.06-.12.13-.24.2-.36L313.88,212.3l.94-1.62c15.23-26.38,53.31-26.38,68.55,0l15.22,26.37h0S105.29,745.06,105.29,745.06l-.94,1.62Z"/>
        <path class="cls-2" d="M1063.98,806.04h-86.01c30.46,0,49.5-32.97,34.27-59.36l-.93-1.62-260.51-451.21h0s7.8-13.51,7.8-13.51l.93-1.62c15.23-26.38,53.31-26.38,68.55,0l.93,1.62,268.31,464.72s.01.02.02.03l.92,1.59c15.23,26.38-3.81,59.36-34.27,59.36Z"/>
        <path class="cls-3" d="M1012.24,746.68l-.93-1.62-260.51-451.21h0S592.56,19.79,592.56,19.79c-15.23-26.38-53.31-26.38-68.54,0l-125.44,217.26h0S105.29,745.06,105.29,745.06l-.94,1.62c-15.23,26.38,3.81,59.36,34.27,59.36h839.35c30.46,0,49.5-32.97,34.27-59.36ZM703.3,438.61c9.93,0,18.51,3.54,25.74,10.62,7.24,7.08,10.86,15.43,10.86,25.05v123.6c0,9.62-3.59,17.98-10.77,25.06-7.17,7.08-15.67,10.61-25.52,10.61h-108.01v87.6c0,9.97-3.54,18.43-10.61,25.42-7.08,6.98-15.42,10.47-25.04,10.47-10.19,0-18.82-3.45-25.88-10.39-7.08-6.93-10.61-15.34-10.61-25.24v-87.85h-108.44c-9.68,0-18.09-3.47-25.2-10.42-7.11-6.94-10.66-15.38-10.66-25.31s3.47-18.35,10.41-25.3c6.94-6.94,15.36-10.43,25.27-10.43h252.23v-52.03h-252.13c-9.94,0-18.38-3.41-25.34-10.21-6.96-6.81-10.43-15.32-10.43-25.54v-123.44c0-9.93,3.5-18.36,10.52-25.32,7.01-6.94,15.53-10.43,25.56-10.43h108.22v-87.1c0-9.62,3.32-17.98,9.97-25.07,6.65-7.08,15.64-10.62,26.95-10.62,9.62,0,17.9,3.48,24.84,10.42,6.92,6.94,10.39,15.37,10.39,25.27v87.1h108.22c9.53,0,17.82,3.37,24.84,10.09.18.17.35.35.53.52,7.13,7.08,10.7,15.42,10.7,25.04s-3.61,18.46-10.83,25.68c-7.22,7.21-15.77,10.82-25.67,10.82h-252.1v51.34h251.98Z"/>
      </g>
      <g>
        <path class="cls-1" d="M1085.43,248.14h-59.46c-4.03,0-7.29-3.26-7.29-7.29v-41.22c0-4.03,3.26-7.29,7.29-7.29h199.15c4.03,0,7.29,3.26,7.29,7.29v41.22c0,4.03-3.26,7.29-7.29,7.29h-59.46c-4.03,0-7.29,3.26-7.29,7.29v189.67c0,4.03-3.26,7.29-7.29,7.29h-51.07c-4.03,0-7.29-3.26-7.29-7.29v-189.67c0-4.03-3.26-7.29-7.29-7.29Z"/>
        <path class="cls-1" d="M1277.63,199.63c0-4.03,3.26-7.29,7.29-7.29h133.86c44.13,0,66.38,21.88,66.38,64.56v39.03c0,28.53-9.8,47.55-29.65,57.06-4,1.91-5.26,7.01-2.77,10.67l52.73,77.34c3.3,4.84-.17,11.4-6.02,11.4h-58.97c-2.4,0-4.65-1.18-6.01-3.16l-59.12-85.96c-1.36-1.98-3.61-3.16-6.01-3.16h-18.78c-4.03,0-7.29,3.26-7.29,7.29v77.7c0,4.03-3.26,7.29-7.29,7.29h-51.07c-4.03,0-7.29-3.26-7.29-7.29v-245.47ZM1399.09,304.31c15.32,0,20.42-4.74,20.42-18.97v-17.87c0-14.59-5.11-19.33-20.42-19.33h-48.51c-4.03,0-7.29,3.26-7.29,7.29v41.59c0,4.03,3.26,7.29,7.29,7.29h48.51Z"/>
        <path class="cls-1" d="M1628.37,192.34h85.24c3.18,0,5.99,2.06,6.95,5.1l77.46,245.47c1.48,4.7-2.03,9.48-6.95,9.48h-52.11c-3.22,0-6.05-2.11-6.98-5.19l-13.66-45.42c-.93-3.08-3.76-5.19-6.98-5.19h-81.07c-3.22,0-6.05,2.11-6.98,5.19l-13.66,45.42c-.93,3.08-3.76,5.19-6.98,5.19h-51.75c-4.93,0-8.43-4.79-6.95-9.48l77.46-245.47c.96-3.03,3.77-5.1,6.95-5.1ZM1697.18,331.04l-19.07-63.72c-2.07-6.92-11.86-6.94-13.96-.02l-19.31,63.72c-1.42,4.68,2.08,9.4,6.98,9.4h38.38c4.88,0,8.38-4.7,6.98-9.38Z"/>
        <path class="cls-1" d="M1853.53,192.34h51.07c4.03,0,7.29,3.26,7.29,7.29v245.47c0,4.03-3.26,7.29-7.29,7.29h-51.07c-4.03,0-7.29-3.26-7.29-7.29v-245.47c0-4.03,3.26-7.29,7.29-7.29Z"/>
        <path class="cls-1" d="M1982.63,192.34h51.07c4.03,0,7.29,3.26,7.29,7.29v189.67c0,4.03,3.26,7.29,7.29,7.29h100.31c4.03,0,7.29,3.26,7.29,7.29v41.22c0,4.03-3.26,7.29-7.29,7.29h-165.96c-4.03,0-7.29-3.26-7.29-7.29v-245.47c0-4.03,3.26-7.29,7.29-7.29Z"/>
        <path class="cls-1" d="M2562.18,199.63v245.47c0,4.03-3.26,7.29-7.29,7.29h-51.07c-4.03,0-7.29-3.26-7.29-7.29v-118.97c0-7.3-9.54-10.07-13.45-3.9l-41.3,65.13c-1.34,2.11-3.66,3.39-6.16,3.39h-14.95c-2.5,0-4.83-1.28-6.16-3.4l-41.3-65.39c-3.9-6.18-13.45-3.41-13.45,3.89v119.24c0,4.03-3.26,7.29-7.29,7.29h-51.07c-4.03,0-7.29-3.26-7.29-7.29v-245.47c0-4.03,3.26-7.29,7.29-7.29h52.16c2.5,0,4.82,1.28,6.16,3.39l62.44,98.49c2.87,4.52,9.47,4.51,12.32-.01l62.1-98.46c1.34-2.12,3.66-3.4,6.17-3.4h52.15c4.03,0,7.29,3.26,7.29,7.29Z"/>
        <path class="cls-1" d="M2695.18,192.34h85.24c3.18,0,5.99,2.06,6.95,5.1l77.46,245.47c1.48,4.7-2.03,9.48-6.95,9.48h-52.11c-3.22,0-6.05-2.11-6.98-5.19l-13.66-45.42c-.93-3.08-3.76-5.19-6.98-5.19h-81.07c-3.22,0-6.05,2.11-6.98,5.19l-13.66,45.42c-.93,3.08-3.76,5.19-6.98,5.19h-51.75c-4.93,0-8.43-4.79-6.95-9.48l77.46-245.47c.96-3.03,3.77-5.1,6.95-5.1ZM2763.98,331.04l-19.07-63.72c-2.07-6.92-11.86-6.94-13.96-.02l-19.31,63.72c-1.42,4.68,2.08,9.4,6.98,9.4h38.38c4.88,0,8.38-4.7,6.98-9.38Z"/>
        <path class="cls-1" d="M2932.38,248.14h-59.46c-4.03,0-7.29-3.26-7.29-7.29v-41.22c0-4.03,3.26-7.29,7.29-7.29h199.15c4.03,0,7.29,3.26,7.29,7.29v41.22c0,4.03-3.26,7.29-7.29,7.29h-59.46c-4.03,0-7.29,3.26-7.29,7.29v189.67c0,4.03-3.26,7.29-7.29,7.29h-51.07c-4.03,0-7.29-3.26-7.29-7.29v-189.67c0-4.03-3.26-7.29-7.29-7.29Z"/>
        <path class="cls-1" d="M3270.48,348.81h-72.96c-4.03,0-7.29,3.26-7.29,7.29v89c0,4.03-3.26,7.29-7.29,7.29h-51.07c-4.03,0-7.29-3.26-7.29-7.29v-245.47c0-4.03,3.26-7.29,7.29-7.29h51.07c4.03,0,7.29,3.26,7.29,7.29v85.72c0,4.03,3.26,7.29,7.29,7.29h72.96c4.03,0,7.29-3.26,7.29-7.29v-85.72c0-4.03,3.26-7.29,7.29-7.29h51.07c4.03,0,7.29,3.26,7.29,7.29v245.47c0,4.03-3.26,7.29-7.29,7.29h-51.07c-4.03,0-7.29-3.26-7.29-7.29v-89c0-4.03-3.26-7.29-7.29-7.29Z"/>
      </g>
      <g>
        <path class="cls-1" d="M1202.05,638.29v-43.85c0-15.54,8-23.08,24.46-23.08h27.24c16.46,0,24.46,7.54,24.46,23.08v26.16h-62.16v15.54c0,9.85,4.31,14,14.92,14h18.31c10.46,0,14.93-4.15,14.93-13.69v-.92l14,1.23v1.54c0,15.69-8,23.23-24.46,23.23h-27.24c-16.46,0-24.46-7.54-24.46-23.23ZM1264.21,609.21v-12.46c0-9.85-4.46-14-14.93-14h-18.31c-10.62,0-14.92,4.15-14.92,14v12.46h48.16Z"/>
        <path class="cls-1" d="M1414.7,551.36v108.63h-14.62v-85.24l-34.62,52.93h-6.15l-34.47-52.93v85.24h-14.62v-108.63h14.62l37.54,57.55,37.54-57.55h14.77Z"/>
        <path class="cls-1" d="M1476.41,563.98h-36.31v-12.62h87.4v12.62h-36.47v96.01h-14.62v-96.01Z"/>
        <path class="cls-1" d="M1553.04,551.36h50.16c20.62,0,29.54,8.46,29.54,27.85v3.08c0,10.46-3.23,16.77-11.85,21.23,10.62,3.69,14.93,10.92,14.93,24.16v4.46c0,19.39-8.92,27.85-29.54,27.85h-53.24v-108.63ZM1599.35,598.29c14.62,0,18.77-3.54,18.77-15.39v-1.69c0-12.77-4.77-17.23-18.77-17.23h-31.7v34.31h31.7ZM1602.43,610.6h-34.77v36.78h34.77c14,0,18.77-4.46,18.77-17.23v-2.46c0-12.92-4.62-17.08-18.77-17.08Z"/>
        <path class="cls-1" d="M1720.76,563.98v33.7h54.62v12.62h-54.62v37.08h61.09v12.62h-75.7v-108.63h75.7v12.62h-61.09Z"/>
        <path class="cls-1" d="M1892.32,579.21v52.93c0,19.39-9.08,27.85-29.54,27.85h-52.16v-108.63h52.16c20.46,0,29.54,8.46,29.54,27.85ZM1858.93,563.98h-33.7v83.4h33.7c14,0,18.77-4.46,18.77-17.23v-48.93c0-12.92-4.77-17.23-18.77-17.23Z"/>
        <path class="cls-1" d="M1926.33,551.36h14.62v108.63h-14.62v-108.63Z"/>
        <path class="cls-1" d="M2002.65,563.98h-36.31v-12.62h87.4v12.62h-36.47v96.01h-14.62v-96.01Z"/>
        <path class="cls-1" d="M2079.28,551.36h14.62v108.63h-14.62v-108.63Z"/>
        <path class="cls-1" d="M2213.3,577.67v56.01c0,19.39-8.92,27.85-29.54,27.85h-26.31c-20.62,0-29.54-8.46-29.54-27.85v-56.01c0-19.39,8.92-27.85,29.54-27.85h26.31c20.62,0,29.54,8.46,29.54,27.85ZM2180.07,562.44h-18.93c-14,0-18.62,4.31-18.62,17.23v52.01c0,12.77,4.62,17.23,18.62,17.23h18.93c14,0,18.62-4.46,18.62-17.23v-52.01c0-12.92-4.62-17.23-18.62-17.23Z"/>
        <path class="cls-1" d="M2247.16,551.36h14.62l54.78,85.09v-85.09h14.62v108.63h-14.77l-54.62-84.94v84.94h-14.62v-108.63Z"/>
      </g>
    </g>
  </g>
</svg>