<?xml version="1.0" encoding="UTF-8"?>
<svg id="Layer_2" data-name="Layer 2" xmlns="http://www.w3.org/2000/svg" xmlns:xlink="http://www.w3.org/1999/xlink" viewBox="0 0 1460.34 1195.81">
  <defs>
    <style>
      .cls-1, .cls-2 {
        fill: #00206f;
      }

      .cls-3 {
        fill: url(#linear-gradient-2);
      }

      .cls-2 {
        font-family: Erbaum-Book, Erbaum;
        font-size: 96.66px;
      }

      .cls-4 {
        fill: url(#linear-gradient-3);
      }

      .cls-5 {
        letter-spacing: 0em;
      }

      .cls-6 {
        fill: url(#linear-gradient);
      }
    </style>
    <linearGradient id="linear-gradient" x1="377.66" y1="204.84" x2="377.66" y2="821.54" gradientUnits="userSpaceOnUse">
      <stop offset=".54" stop-color="#0071bc"/>
      <stop offset="1" stop-color="#00206f"/>
    </linearGradient>
    <linearGradient id="linear-gradient-2" x1="1105.57" y1="204.84" x2="1105.57" y2="821.54" gradientUnits="userSpaceOnUse">
      <stop offset=".54" stop-color="#0071bc"/>
      <stop offset="1" stop-color="#00206f"/>
    </linearGradient>
    <linearGradient id="linear-gradient-3" x1="736.66" y1="56.33" x2="736.66" y2="773.44" gradientUnits="userSpaceOnUse">
      <stop offset="0" stop-color="#0071bc"/>
      <stop offset="1" stop-color="#00206f"/>
    </linearGradient>
  </defs>
  <g id="Layer_1-2" data-name="Layer 1">
    <g>
      <g>
        <path class="cls-1" d="M41.93,920.69H4.58c-2.53,0-4.58-2.05-4.58-4.58v-25.9c0-2.53,2.05-4.58,4.58-4.58h125.1c2.53,0,4.58,2.05,4.58,4.58v25.9c0,2.53-2.05,4.58-4.58,4.58h-37.35c-2.53,0-4.58,2.05-4.58,4.58v119.14c0,2.53-2.05,4.58-4.58,4.58h-32.08c-2.53,0-4.58-2.05-4.58-4.58v-119.14c0-2.53-2.05-4.58-4.58-4.58Z"/>
        <path class="cls-1" d="M162.67,890.22c0-2.53,2.05-4.58,4.58-4.58h84.09c27.72,0,41.7,13.75,41.7,40.55v24.52c0,17.92-6.15,29.87-18.63,35.84-2.51,1.2-3.31,4.4-1.74,6.71l33.12,48.58c2.07,3.04-.1,7.16-3.78,7.16h-37.04c-1.51,0-2.92-.74-3.77-1.98l-37.14-54c-.85-1.24-2.27-1.98-3.77-1.98h-11.8c-2.53,0-4.58,2.05-4.58,4.58v48.81c0,2.53-2.05,4.58-4.58,4.58h-32.08c-2.53,0-4.58-2.05-4.58-4.58v-154.2ZM238.96,955.98c9.62,0,12.83-2.98,12.83-11.91v-11.23c0-9.16-3.21-12.14-12.83-12.14h-30.48c-2.53,0-4.58,2.05-4.58,4.58v26.13c0,2.53,2.05,4.58,4.58,4.58h30.48Z"/>
        <path class="cls-1" d="M382.99,885.64h53.54c2,0,3.77,1.3,4.37,3.2l48.66,154.2c.93,2.95-1.27,5.96-4.37,5.96h-32.73c-2.02,0-3.8-1.33-4.39-3.26l-8.58-28.53c-.58-1.94-2.36-3.26-4.39-3.26h-50.93c-2.02,0-3.8,1.33-4.39,3.26l-8.58,28.53c-.58,1.94-2.36,3.26-4.39,3.26h-32.51c-3.09,0-5.3-3.01-4.37-5.96l48.66-154.2c.6-1.91,2.37-3.2,4.37-3.2ZM426.21,972.77l-11.98-40.03c-1.3-4.35-7.45-4.36-8.77-.02l-12.13,40.03c-.89,2.94,1.31,5.91,4.38,5.91h24.11c3.07,0,5.27-2.95,4.39-5.89Z"/>
        <path class="cls-1" d="M524.43,885.64h32.08c2.53,0,4.58,2.05,4.58,4.58v154.2c0,2.53-2.05,4.58-4.58,4.58h-32.08c-2.53,0-4.58-2.05-4.58-4.58v-154.2c0-2.53,2.05-4.58,4.58-4.58Z"/>
        <path class="cls-1" d="M605.53,885.64h32.08c2.53,0,4.58,2.05,4.58,4.58v119.14c0,2.53,2.05,4.58,4.58,4.58h63.01c2.53,0,4.58,2.05,4.58,4.58v25.9c0,2.53-2.05,4.58-4.58,4.58h-104.25c-2.53,0-4.58-2.05-4.58-4.58v-154.2c0-2.53,2.05-4.58,4.58-4.58Z"/>
        <path class="cls-1" d="M969.59,890.22v154.2c0,2.53-2.05,4.58-4.58,4.58h-32.08c-2.53,0-4.58-2.05-4.58-4.58v-74.73c0-4.58-5.99-6.32-8.45-2.45l-25.95,40.92c-.84,1.32-2.3,2.13-3.87,2.13h-9.39c-1.57,0-3.03-.81-3.87-2.13l-25.94-41.08c-2.45-3.88-8.45-2.14-8.45,2.45v74.91c0,2.53-2.05,4.58-4.58,4.58h-32.08c-2.53,0-4.58-2.05-4.58-4.58v-154.2c0-2.53,2.05-4.58,4.58-4.58h32.77c1.57,0,3.03.8,3.87,2.13l39.22,61.87c1.8,2.84,5.95,2.84,7.74,0l39.01-61.85c.84-1.33,2.3-2.14,3.87-2.14h32.76c2.53,0,4.58,2.05,4.58,4.58Z"/>
        <path class="cls-1" d="M1053.13,885.64h53.54c2,0,3.77,1.3,4.37,3.2l48.66,154.2c.93,2.95-1.27,5.96-4.37,5.96h-32.73c-2.02,0-3.8-1.33-4.39-3.26l-8.58-28.53c-.58-1.94-2.36-3.26-4.39-3.26h-50.93c-2.02,0-3.8,1.33-4.39,3.26l-8.58,28.53c-.58,1.94-2.36,3.26-4.39,3.26h-32.51c-3.09,0-5.3-3.01-4.37-5.96l48.66-154.2c.6-1.91,2.37-3.2,4.37-3.2ZM1096.35,972.77l-11.98-40.03c-1.3-4.35-7.45-4.36-8.77-.02l-12.13,40.03c-.89,2.94,1.31,5.91,4.38,5.91h24.11c3.07,0,5.27-2.95,4.39-5.89Z"/>
        <path class="cls-1" d="M1202.13,920.69h-37.35c-2.53,0-4.58-2.05-4.58-4.58v-25.9c0-2.53,2.05-4.58,4.58-4.58h125.1c2.53,0,4.58,2.05,4.58,4.58v25.9c0,2.53-2.05,4.58-4.58,4.58h-37.35c-2.53,0-4.58,2.05-4.58,4.58v119.14c0,2.53-2.05,4.58-4.58,4.58h-32.08c-2.53,0-4.58-2.05-4.58-4.58v-119.14c0-2.53-2.05-4.58-4.58-4.58Z"/>
        <path class="cls-1" d="M1414.52,983.93h-45.83c-2.53,0-4.58,2.05-4.58,4.58v55.91c0,2.53-2.05,4.58-4.58,4.58h-32.08c-2.53,0-4.58-2.05-4.58-4.58v-154.2c0-2.53,2.05-4.58,4.58-4.58h32.08c2.53,0,4.58,2.05,4.58,4.58v53.85c0,2.53,2.05,4.58,4.58,4.58h45.83c2.53,0,4.58-2.05,4.58-4.58v-53.85c0-2.53,2.05-4.58,4.58-4.58h32.08c2.53,0,4.58,2.05,4.58,4.58v154.2c0,2.53-2.05,4.58-4.58,4.58h-32.08c-2.53,0-4.58-2.05-4.58-4.58v-55.91c0-2.53-2.05-4.58-4.58-4.58Z"/>
      </g>
      <text class="cls-2" transform="translate(365.38 1168.17)"><tspan x="0" y="0">eMTB </tspan><tspan class="cls-5" x="314.82" y="0">E</tspan><tspan x="380.45" y="0">DITION</tspan></text>
      <g>
        <path class="cls-6" d="M282.72,746.68c-15.23,26.38,3.81,59.36,34.27,59.36h-98.99c-30.46,0-49.5-32.97-34.27-59.36l.73-1.26c.06-.12.13-.24.2-.36L492.24,212.3l.94-1.62c15.23-26.38,53.31-26.38,68.55,0l15.22,26.37h0s-293.3,508.01-293.3,508.01l-.94,1.62Z"/>
        <path class="cls-3" d="M1242.34,806.04h-86.01c30.46,0,49.5-32.97,34.27-59.36l-.93-1.62-260.51-451.21h0s7.8-13.51,7.8-13.51l.93-1.62c15.23-26.38,53.31-26.38,68.55,0l.93,1.62,268.31,464.72s.01.02.02.03l.92,1.59c15.23,26.38-3.81,59.36-34.27,59.36Z"/>
        <path class="cls-4" d="M1190.6,746.68l-.93-1.62-260.51-451.21h0S770.93,19.79,770.93,19.79c-15.23-26.38-53.31-26.38-68.54,0l-125.44,217.26h0s-293.3,508.01-293.3,508.01l-.94,1.62c-15.23,26.38,3.81,59.36,34.27,59.36h839.35c30.46,0,49.5-32.97,34.27-59.36ZM881.66,438.61c9.93,0,18.51,3.54,25.74,10.62,7.24,7.08,10.86,15.43,10.86,25.05v123.6c0,9.62-3.59,17.98-10.77,25.06-7.17,7.08-15.67,10.61-25.52,10.61h-108.01v87.6c0,9.97-3.54,18.43-10.61,25.42-7.08,6.98-15.42,10.47-25.04,10.47-10.19,0-18.82-3.45-25.88-10.39-7.08-6.93-10.61-15.34-10.61-25.24v-87.85h-108.44c-9.68,0-18.09-3.47-25.2-10.42-7.11-6.94-10.66-15.38-10.66-25.31s3.47-18.35,10.41-25.3c6.94-6.94,15.36-10.43,25.27-10.43h252.23v-52.03h-252.13c-9.94,0-18.38-3.41-25.34-10.21-6.96-6.81-10.43-15.32-10.43-25.54v-123.44c0-9.93,3.5-18.36,10.52-25.32,7.01-6.94,15.53-10.43,25.56-10.43h108.22v-87.1c0-9.62,3.32-17.98,9.97-25.07,6.65-7.08,15.64-10.62,26.95-10.62,9.62,0,17.9,3.48,24.84,10.42,6.92,6.94,10.39,15.37,10.39,25.27v87.1h108.22c9.53,0,17.82,3.37,24.84,10.09.18.17.35.35.53.52,7.13,7.08,10.7,15.42,10.7,25.04s-3.61,18.46-10.83,25.68c-7.22,7.21-15.77,10.82-25.67,10.82h-252.1v51.34h251.98Z"/>
      </g>
    </g>
  </g>
</svg>