<?xml version="1.0" encoding="UTF-8"?>
<svg id="Layer_2" data-name="Layer 2" xmlns="http://www.w3.org/2000/svg" viewBox="0 0 353.61 41.97">
  <g id="Layer_2-2" data-name="Layer 2">
    <g>
      <path d="M53.71,1.63l-5.84,34.38L77.13,2.98c.42-.27,2.68-1.34,2.9-1.34h15.15l-1.32,18.52c.9-.04,1.55-.98,2.13-1.59,3.86-4.04,8.86-11.95,13.01-15.09.65-.49,2.88-1.84,3.47-1.84h17.81l-6.91,38.61h-13.83c.76-8.19,3.68-16.67,4.66-24.73.1-.8.53-1.37-.66-1.19l-18.91,22.33c-.87.9-3.45,3.59-4.49,3.59h-8.77l1.33-25.91c-3.1,3.04-21.13,25.91-23.4,25.91h-25.26l4.51-25.92-21.25,24.35c-.42.36-2.9,1.57-3.21,1.57H0L32.46,2.98c.42-.27,2.68-1.34,2.9-1.34h18.35Z"/>
      <path d="M288.74,1.63l-4.78,25.92c2.13-1.96,4.21-4.17,6.12-6.34,4.46-5.08,10.31-13.61,15.11-17.75.63-.54,2.24-1.83,2.96-1.83h8.77l-1.86,25.92,20.79-23.75c.62-.59,3.05-2.17,3.67-2.17h14.09l-32.17,37.02c-.4.29-2.5,1.59-2.66,1.59h-15.69l1.06-18.51c-.71.28-1.35,1.02-1.86,1.58-2.73,3.01-13.23,16.93-16.48,16.93h-18.35l7.44-38.61h13.83Z"/>
      <path d="M260.86,31.55c-11.59,12.76-44.2,16-50.03-2.95C205.59,11.53,227.85-.09,242.21,0c18.02.11,33.11,15.63,18.65,31.55ZM250.81,13.45c-6.8-6.88-26.21-2.89-27.48,7.48-1.97,16.02,27.54,14.4,30.09.3.44-2.41-.91-6.06-2.61-7.77Z"/>
      <path d="M176.54,1.63l-1.67,8.92-24.41.31c-3.73,1.13-3.14,7.4-4.23,10.34h26.59c-.19,1.38-1.02,8.8-1.95,9.01l-26.18.03c-.7.59-1.03,8.85-2.45,9.99h-13.03l5.59-31.73c.52-2.65,4.87-6.88,7.44-6.88h34.3Z"/>
      <path d="M195.68,1.63l-5.32,29.09h15.69l1.7,2.6c.82,1.25,1.78,2.4,2.86,3.43l3.67,3.49h-34.3c-1.51,0-4.84-3.57-4.48-5.48l5.84-31.78c.12-.41.36-1.35.77-1.35h13.56Z"/>
    </g>
  </g>
</svg>