<?xml version="1.0" encoding="UTF-8"?>
<svg id="Layer_2" data-name="Layer 2" xmlns="http://www.w3.org/2000/svg" viewBox="0 0 300.8 73.55">
  <g id="Layer_2-2" data-name="Layer 2">
    <g>
      <path d="M190.9,12.97c16.07-.06,32.15.08,48.23,0,9.87-.04,25.08-3.25,25.96,10.94.17,2.73.18,7.31-.69,9.85-1.49,4.37-5.52,6.98-10.01,7.41l10.52,14.75h-18.2l-10.7-14.84h-26.83v14.84h-18.29V12.97ZM209.19,31.95h34.76c.72,0,2.1-1.47,2.34-2.15.26-.74.33-4.66.08-5.44-.32-.99-1.69-2.42-2.76-2.42h-34.42v10.01Z"/>
      <path d="M171.06,55.76h-18.29v-14.66h-37.27v14.66h-18.29V21.68c0-4.31,5.77-8.31,9.77-8.52,17.39-.45,34.85-.06,52.26-.2,4.83-.16,11.81,3.67,11.81,9.07v33.73ZM152.77,31.95v-7.16c0-.07-.45-1.04-.54-1.18-.66-.99-2.02-1.42-3.16-1.5-9.74-.72-20.37.56-30.2,0-1.09-.08-3.37,1.4-3.37,2.5v7.5c.24.1.52-.17.6-.17h36.66Z"/>
      <path d="M35.58.08c2.14-.29,4.06.27,5.74,1.59l30.53,30.54c1.83,2.25,2.19,4.91,1.02,7.56-.3.67-1.57,2.73-2.39,2.46l-26.79-13.59c-7.74-3.16-12.49-.66-19.27,2.7-7.16,3.55-14.24,7.31-21.39,10.89-.5.22-1.06-.51-1.38-.88-1.85-2.2-2.15-5.36-.84-7.9C10.73,22.58,21.63,12.5,31.91,1.92c.99-.84,2.36-1.67,3.67-1.85Z"/>
      <path d="M64.95,47.99l-.17.43-23.46,23.46c-2.82,2.29-6.6,2.2-9.32-.17l-23.46-23.64,25.32-12.63c2.56-.74,5.13-.5,7.52.66l23.57,11.89Z"/>
      <rect x="282.51" y="12.97" width="18.29" height="43.13"/>
    </g>
  </g>
</svg>