<?xml version="1.0" encoding="UTF-8"?>
<svg id="Layer_2" data-name="Layer 2" xmlns="http://www.w3.org/2000/svg" viewBox="0 0 353.97 26.89">
  <g id="Layer_2-2" data-name="Layer 2">
    <g>
      <path d="M83.05.54c-1.18,1.93-1.96,5.85-3.71,7.22-1.96,1.53-7.78,1.9-10.37,2.5l8.23,3.2c-1.31,3.73-3.07,10.24-7.15,11.72-2.46.89-5.51.57-8.1,1.12L.03,26.27c-.08-.68.04-1.3.23-1.95C.98,21.84,9.2,3.73,10.47,2.48c.31-.3,2.73-1.95,2.91-1.95h69.67ZM59.26,10.73c.13-.79,2.65-5.34.73-5.34h-31.8l-1.94,5.34h33.02ZM56.83,15.59H23.33l-1.94,5.34h31.8c1.61,0,3.23-3.98,3.64-5.34Z"/>
      <path d="M353.97.54l-2.27,4.87-51.87-.02c-1.61.3-2.56,3.86-2.67,5.34h50.25c.16,0,1.05.98,1.14,1.32.31,1.12-3.3,9.29-4.2,10.67-1.04,1.58-3.25,3.55-5.19,3.55h-68.22c-.15-1.46,1.18-5.07,2.67-5.34h50.97c1.74-.35,2.9-3.66,2.68-5.34h-49.77c-.52,0-1.23-1.42-1.21-2.13.08-2.19,4.74-12.92,7.52-12.92h70.16Z"/>
      <path d="M106.36.54l-8.28,19.17c-.04.41.51,1.22.75,1.22h26.22c.83,0,1.51-1.36,1.87-1.99,3.19-5.53,5.29-12.59,8.08-18.4h18.69c.1,0,.54-.72.72-.49-2.2,5.91-4.57,12.4-7.35,18.14-3.51,7.24-5.13,7.62-13.26,8.1-13.73.81-32.91.8-46.65,0-6.91-.4-10.49.12-8-7.56,1.16-3.58,5.34-13.5,7.2-16.59.37-.61.74-1.16,1.31-1.6h18.69Z"/>
      <path d="M177,.54c.14-.02.54-.73.72-.49l-8.73,20.88h37.87c.13,1.94-1.03,3.84-2.18,5.34h-57.05l10.57-24.62c.92-1.95,1.76-1.11,2.78-1.11,4.7,0,11.66.6,16.02,0Z"/>
      <polygon points="208.8 26.27 219.81 .52 238.9 .54 230.16 20.93 268.03 20.93 266.09 26.27 208.8 26.27"/>
    </g>
  </g>
</svg>