<?xml version="1.0" encoding="UTF-8"?>
<svg id="Layer_2" data-name="Layer 2" xmlns="http://www.w3.org/2000/svg" viewBox="0 0 353.61 49.46">
  <g id="Layer_2-2" data-name="Layer 2">
    <g id="Artwork_73" data-name="Artwork 73">
      <path d="M8.77.06C-1.35.06-3.04,8.43,5.43,18.75l14.35,17.4c5.17,6.28,9.92,11.18,12.04,12.84.06.04.12.06.2.06h14.54c-4.98-3.18-11.01-8.99-15.4-14.08L14.95,15.5c-3.45-4.2-2.88-6.44,1.13-5.9,2.02.27,7.56,2.97,13.66,8.57h12.5C32.47,7.19,21.08.06,8.77.06M51.87,49.46h10c-.49-3.8-2.17-8.28-5.63-12.45h-10.99c3.95,4.77,5.73,8.43,6.62,12.45M219.41,36.04L203.4,1.06h-9.95l11.94,23.95h-.33S173.15,1.06,173.15,1.06h-14.14l50.01,36.99,9.61,11.4h12.09l-11.3-13.4M130.69,1.06l39.22,45.95h-.33S112.45,1.06,112.45,1.06h-11.57l40.25,47.98h11.5l-23.54-26.08h.33l32.65,26.48h19.99L141.46,1.06h-10.78M302.24,1.06l39.22,45.95h-.33S284,1.06,284,1.06h-11.57l40.26,47.98h11.49l-23.11-26.08h-.1l32.65,26.48h19.99L313.01,1.06h-10.77M56.46,1.06l24.73,47.98h10.3l-18.77-35.01h.32l36.24,35.41h12.99L71.65,1.06h-15.19M255.6,34.95c4.4,5.1,10.44,10.91,15.42,14.09h-14.55c-.09,0-.14-.01-.2-.06-2.12-1.67-6.88-6.58-12.05-12.85l-14.36-17.42c-8.49-10.33-6.8-18.71,3.34-18.71,13.28,0,25.49,8.28,35.73,20.75l7.41,9c7.02,8.53,9.18,13.79,10.24,19.7h-9.52c-.9-4.02-2.68-7.69-6.63-12.46l-10.5-12.77c-8.07-9.79-16.77-14.3-19.42-14.66-4-.54-4.58,1.7-1.12,5.9l16.23,19.49"/>
    </g>
  </g>
</svg>