<?xml version="1.0" encoding="UTF-8"?>
<svg id="Layer_2" data-name="Layer 2" xmlns="http://www.w3.org/2000/svg" viewBox="0 0 73.69 73.55">
  <g id="Layer_2-2" data-name="Layer 2">
    <g id="Artwork_9" data-name="Artwork 9">
      <g>
        <path d="M73.69,66.4c0,3.95-3.52,7.15-7.86,7.15H7.86c-4.34,0-7.86-3.2-7.86-7.15V7.15C0,3.2,3.52,0,7.86,0h57.98c4.34,0,7.86,3.2,7.86,7.15v59.25ZM67.94,11.68c0-3.33-2.97-6.03-6.63-6.03H12.38c-3.66,0-6.63,2.7-6.63,6.03v50.01c0,3.33,2.97,6.03,6.63,6.03h48.94c3.66,0,6.63-2.7,6.63-6.03V11.68Z"/>
        <polygon points="13.78 16.15 13.78 44.09 60.05 44.09 60.05 16.15 37.34 40.95 13.78 16.15"/>
        <polygon points="13.78 51.85 31.06 51.85 34.41 57.25 37.68 51.85 46.32 51.85 46.32 60.99 41.65 60.99 41.65 53.21 36.85 60.99 31.96 60.99 27.49 53.77 18.42 53.77 18.42 55.33 27.79 55.33 27.79 57.35 18.39 57.35 18.39 58.93 27.72 58.93 27.72 60.99 13.78 60.99 13.78 51.85"/>
        <polygon points="47.44 51.85 47.44 60.99 60.05 60.99 60.05 58.47 52.44 58.47 52.44 51.85 47.44 51.85"/>
      </g>
    </g>
  </g>
</svg>