<?xml version="1.0" encoding="UTF-8"?>
<svg id="Layer_2" data-name="Layer 2" xmlns="http://www.w3.org/2000/svg" viewBox="0 0 353.8 47.23">
  <defs>
    <style>
      .cls-1 {
        fill-rule: evenodd;
      }

      .cls-1, .cls-2 {
        fill: #231f20;
      }
    </style>
  </defs>
  <g id="Layer_2-2" data-name="Layer 2">
    <g>
      <g>
        <path class="cls-2" d="M101.33,17.77h-1.57s-1.48-.16-4.12,1.62c-2.64,1.78-14.21,8.37-14.21,8.37h13.99l-3.49,6.02-20.76-.05,10.81-18.64.06-.09s1.09-2.06,8.36-2.06h19.41s3.99,0,5.26-.74c1.27-.74,9.13-5.51,9.13-5.51h-56.41c-1.11,0-2.07,1.62-2.07,1.62h0l-16.93,29.19h40.97l-.02.04h20.67l11.48-19.78h-20.55Z"/>
        <g>
          <path class="cls-2" d="M133.53,6.69c-1.09.06-2.01,1.62-2.01,1.62h0l-16.93,29.19h19.52l17.88-30.82h-18.45Z"/>
          <path class="cls-2" d="M201.08,6.69h-43.21c-1.08.06-2.01,1.62-2.01,1.62h0l-16.93,29.19h19.52l13.41-23.12c.93-.15,12.72-1.95,24.09.01,0,0,.44-.01-.45,1.56-.04.06-.06.12-.09.17l-6.1,10.52h-4.42,0s-7.8,0-7.8,0c0,0-1.48-.17-4.12,1.61-2.64,1.78-7.98,4.91-7.98,4.91h20.54l-2.51,4.33h19.52l17.88-30.82h-19.33Z"/>
        </g>
        <path class="cls-2" d="M286.76,6.71h-58.64c-1.08.06-2.01,1.62-2.01,1.62h0s-16.93,29.19-16.93,29.19h21.33l14.41-24.85h17.62s4.48.17,1.56,5.3c-.02.04-.04.08-.07.12l-11.27,19.43h19.52l15.91-27.43h0c1.9-3.28-1.2-3.38-1.42-3.38Z"/>
        <path class="cls-2" d="M353.8,6.68h-41.49s-1.3,0-1.3,0h-18.01s-3.93,6.78-3.93,6.78h15.98s2.14-.25.95,1.85c-.02.03-.03.06-.05.1l-12.81,22.08h21.23l13.42-24.03h16.53l9.47-6.78Z"/>
      </g>
      <g>
        <path class="cls-1" d="M13.35,1.91C16.7.39,20.43-.24,24.54.08c4.11.32,7.72,1.39,10.75,3.35,3.35,2.21,5.82,4.74,7.53,7.65l1.65,3.86c-3.54-1.77-7.47-2.34-11.77-1.77-4.11.57-7.78,2.15-10.88,4.68l-4.55,4.24c-1.77,1.58-3.42,2.85-4.87,3.67-3.92,2.28-7.78,2.66-11.57,1.08-.38-.44-.57-1.2-.63-2.21l-.19-2.28c.07-4.36,1.27-8.41,3.73-12.14C6.2,6.4,9.43,3.62,13.35,1.91h0Z"/>
        <path class="cls-1" d="M45.29,18.93c.44,2.15.51,3.8.25,4.87-4.49-2.21-8.54-3.1-12.14-2.53-3.16.7-6.14,2.02-8.92,3.92v-.06c2.28-3.41,5.38-5.75,9.24-7.02,4.11-1.33,7.97-1.01,11.57.82h0Z"/>
        <path class="cls-1" d="M13.73,33.92c4.81.19,8.73-.95,11.83-3.29l2.47-1.9,2.28-2.15c1.83-1.64,3.67-2.47,5.44-2.47,3.1-.13,6.2.76,9.3,2.72-.51,3.54-2.21,6.89-5.19,9.99-2.79,2.91-5.95,4.93-9.49,6.13-3.92,1.33-7.97,1.65-12.14.82-4.18-.82-7.78-2.53-10.75-5.18-2.47-2.09-4.36-4.75-5.57-7.97,3.6,2.02,7.53,3.1,11.83,3.29h0Z"/>
      </g>
      <path class="cls-1" d="M244.93,41.89c.39-1.2-.48-1.83-2.55-1.83h-3.7l-2.79,6.93h4.04c.96,0,1.73-.14,2.36-.43.82-.43,1.3-.96,1.54-1.49.34-.72.19-1.34-.34-1.78.67-.34,1.15-.82,1.44-1.39h0ZM240.03,41.27h2.21c.77,0,1.06.24.82.77-.24.53-.72.77-1.54.77h-2.12l.63-1.54h0ZM238.92,44.01h2.55c.67,0,.91.29.67.87-.24.63-.87.92-1.78.92h-2.17l.72-1.78h0Z"/>
      <polygon class="cls-1" points="248.16 46.99 246.28 46.99 249.12 40.06 250.95 40.06 248.16 46.99 248.16 46.99"/>
      <path class="cls-1" d="M254.99,45.88l.67.1.77-.1c.82-.14,1.49-.58,1.93-1.25h1.78c-.34.82-1.01,1.49-1.97,1.93-.82.43-1.83.62-2.94.67-1.01,0-1.73-.24-2.26-.67-.53-.43-.72-1.01-.67-1.78.05-.38.15-.77.34-1.2l.72-1.35c1.2-1.49,2.84-2.26,4.86-2.26.96,0,1.68.19,2.21.53.72.43.91,1.11.62,1.93h-1.78c.1-.29.05-.58-.14-.82-.29-.34-.82-.53-1.64-.48-.87.05-1.64.43-2.26,1.11l-.77,1.2c-.24.63-.34,1.11-.29,1.49.1.43.39.77.82.96h0Z"/>
      <polygon class="cls-1" points="267.21 43.04 270.15 40.06 272.22 40.06 267.55 44.44 266.54 46.99 264.66 46.99 265.72 44.44 264.52 40.06 266.59 40.06 267.21 43.04 267.21 43.04"/>
      <path class="cls-1" d="M278.9,39.96c.96,0,1.68.19,2.21.53.72.43.92,1.11.63,1.93h-1.78c.24-.91-.39-1.35-1.78-1.3-.87.05-1.64.43-2.26,1.11l-.77,1.2c-.24.63-.34,1.11-.29,1.49.1.43.34.77.77.96l.72.1.77-.1c.63-.14,1.06-.34,1.4-.63l.53-.63h1.78c-.34.82-1.01,1.44-1.97,1.93-.82.43-1.83.62-2.94.67-1.01,0-1.78-.24-2.31-.67-.48-.43-.67-1.01-.63-1.78.05-.38.14-.77.29-1.2.24-.48.48-.92.77-1.35,1.2-1.49,2.84-2.26,4.86-2.26h0Z"/>
      <polygon class="cls-1" points="287.71 40.06 285.35 45.79 289.68 45.79 289.25 46.99 283.04 46.99 285.88 40.06 287.71 40.06 287.71 40.06"/>
      <polygon class="cls-1" points="301.23 41.27 296.52 41.27 295.89 42.81 300.22 42.81 299.74 44.01 295.41 44.01 294.69 45.79 299.6 45.79 299.12 46.99 292.38 46.99 295.17 40.06 301.67 40.06 301.23 41.27 301.23 41.27"/>
      <path class="cls-1" d="M304.02,41.89c.72-1.3,2.12-1.93,4.19-1.93,1.4,0,2.31.29,2.65.87.29.43.29.87,0,1.35h-1.73c.34-.72-.14-1.06-1.45-1.11-1.01,0-1.68.29-1.97.82-.15.34-.05.58.34.67l2.07.43c.91.14,1.54.34,1.83.67.34.43.34.96-.1,1.64-.44.63-.96,1.11-1.69,1.4-.72.34-1.73.53-3.03.53-.92,0-1.54-.19-1.97-.53-.63-.39-.82-.96-.58-1.78h1.83c-.14.24-.1.48.09.72.24.34.77.43,1.54.39l1.54-.29.58-.53c.14-.24.1-.48-.05-.62-.14-.19-.63-.34-1.4-.43l-1.83-.34c-1.11-.34-1.4-1.01-.87-1.92h0Z"/>
      <path class="cls-1" d="M325.26,33.22c.38.43.58.91.58,1.54,0,.58-.19,1.06-.58,1.49-.43.43-.96.67-1.54.67-.62,0-1.15-.24-1.59-.67-.43-.43-.63-.92-.63-1.49,0-.63.19-1.11.63-1.54.43-.43.96-.67,1.59-.67.58,0,1.11.24,1.54.67h0ZM323.72,32.07c-.77,0-1.4.29-1.93.82-.53.53-.77,1.16-.77,1.88s.24,1.35.77,1.88c.53.53,1.16.77,1.93.77.72,0,1.35-.24,1.88-.77.53-.53.77-1.15.77-1.88s-.24-1.35-.77-1.88c-.53-.53-1.15-.82-1.88-.82h0ZM324.04,33.32h-1.43v2.84h.53v-1.15h.58l.62,1.15h.67l-.72-1.15c.53-.05.82-.29.82-.82,0-.34-.07-.63-.34-.72-.25-.09-.53-.14-.73-.14h0ZM323.86,33.75c.43,0,.67.15.67.39,0,.29-.19.43-.53.43h-.87v-.82h.72Z"/>
    </g>
  </g>
</svg>