<?xml version="1.0" encoding="UTF-8"?>
<svg id="Layer_2" data-name="Layer 2" xmlns="http://www.w3.org/2000/svg" viewBox="0 0 353.61 48.1">
  <g id="Layer_2-2" data-name="Layer 2">
    <path d="M54.69,3.33c-1.11,1.48-17.37,23.68-17.37,24.05l-.37.37L19.21,3.33c-1.11-1.48-2.22-3.33-6.28-3.33H0v48.1h12.56V14.06l24.39,33.3L61.34,14.06v34.04h12.56V.37h-12.93c-3.69,0-5.17,1.48-6.28,2.96ZM253.48.37h13.3v47.73h-13.3V.37ZM340.31.37v34.78l-29.2-31.82c-1.48-1.48-2.96-2.96-7.02-2.96h-12.93v47.73h13.3V13.32l29.19,31.82c1.11,1.48,2.96,2.96,6.65,2.96h13.3V.37h-13.3,0ZM129.33.37h-14.04l-26.24,47.73h14.04l5.17-9.62h27.71l5.17,9.25h14.04L129.33.37ZM113.8,29.23l8.87-16.28,8.5,16.28h-17.37ZM213.2.37h-42.86v47.73h13.3V10.73h29.56c5.17,0,5.54,3.7,5.54,5.92,0,4.81-4.43,5.92-4.43,5.92l-18.47,5.18,19.21,19.98h15.89l-14.41-15.17,5.54-1.85c5.17-1.85,8.86-7.03,9.23-13.69,0-5.18.74-16.65-18.1-16.65Z"/>
  </g>
</svg>