<?xml version="1.0" encoding="UTF-8"?>
<svg id="Layer_2" data-name="Layer 2" xmlns="http://www.w3.org/2000/svg" viewBox="0 0 353.61 56.26">
  <g id="Layer_2-2" data-name="Layer 2">
    <g>
      <path d="M81.84,21.47l-6.64,15.52h-6.3l6.64-15.52h-2.1c-2.94.32-5.29,2.54-7.05,6.65l-3.8,8.87h-6.3l3.8-8.87c1.58-3.7,4.44-6.28,8.57-7.76,1.72-.62,3.63-.99,5.72-1.11h10.49c1.99.12,3.58.49,4.77,1.11,2.87,1.48,3.51,4.07,1.93,7.76l-3.8,8.87h-6.3l3.8-8.87c1.76-4.11,1.31-6.33-1.35-6.65h-2.1Z"/>
      <path d="M125.35,20.36c-1.19-.62-2.79-.99-4.78-1.11h-10.49c-2.1.12-4.01.49-5.72,1.11-4.14,1.48-6.99,4.07-8.57,7.77-1.59,3.69-.95,6.28,1.92,7.76,1.19.62,2.78.99,4.77,1.11h10.5c2.09-.12,4-.49,5.72-1.11,4.13-1.48,6.99-4.07,8.57-7.76,1.58-3.7.94-6.29-1.92-7.77ZM120.97,28.13c-1.76,4.11-4.1,6.32-7.04,6.65h-10.5c-2.66-.33-3.11-2.54-1.35-6.65,1.76-4.12,4.11-6.33,7.05-6.66h10.49c2.66.33,3.11,2.54,1.35,6.66Z"/>
      <path d="M155.3,21.47h-10.5c-2.94.32-5.29,2.54-7.04,6.65l-3.8,8.87h-6.3s3.8-8.87,3.8-8.87c1.58-3.7,4.44-6.28,8.57-7.76,1.72-.62,3.63-.99,5.72-1.11h10.5c1.99.12,3.58.49,4.77,1.11,2.86,1.48,3.51,4.07,1.93,7.76l-3.8,8.87h-6.3l3.8-8.87c1.76-4.11,1.31-6.33-1.35-6.65h0Z"/>
      <path d="M196.71,20.36c-1.19-.62-2.78-.99-4.77-1.11h-20.99l-7.59,17.75h20.99c2.09-.12,4-.49,5.72-1.11,4.13-1.48,6.99-4.07,8.57-7.76,1.58-3.7.94-6.29-1.93-7.77ZM192.34,28.12c-1.76,4.11-4.11,6.33-7.04,6.66h-14.7l5.7-13.31h14.69c2.66.33,3.11,2.54,1.35,6.65Z"/>
      <path d="M263.64,20.36c-1.18-.62-2.78-.99-4.77-1.11h-10.49c-2.1.12-4.01.49-5.73,1.11-4.13,1.48-6.98,4.07-8.57,7.76l-3.79,8.88h6.29l3.29-7.68h18.89l-3.28,7.68h6.29l3.8-8.88c1.58-3.69.94-6.28-1.93-7.76ZM259.67,27.1h-18.81c1.17-2.33,2.61-3.97,4.33-4.92.73-.38,1.47-.62,2.24-.71h10.49c2.41.27,2.99,2.14,1.75,5.63Z"/>
      <path d="M282.76,37c1.76-4.11,1.31-6.33-1.35-6.65h-6.3l-2.85,6.65h-6.3l7.59-17.74h6.3l-2.85,6.65h6.3c2.94-.33,5.29-2.54,7.05-6.65h6.3c-1.58,3.7-4.44,6.28-8.57,7.76-1.72.62-3.63.99-5.72,1.11,1.99.12,3.58.49,4.77,1.11,2.87,1.48,3.51,4.07,1.93,7.76h-6.3Z"/>
      <path d="M301.75,27.06h18.85l-.95,2.22h-18.85c-1.18,3.4-.57,5.24,1.8,5.5h14.69l-.95,2.22h-14.69c-1.99-.12-3.58-.49-4.77-1.11-2.87-1.48-3.51-4.07-1.92-7.76,1.58-3.7,4.44-6.28,8.57-7.76,1.72-.62,3.63-.99,5.72-1.11h14.69l-.95,2.22h-14.69c-.77.09-1.51.32-2.23.71-1.71.92-3.15,2.54-4.31,4.88h0Z"/>
      <path d="M209.25,27.1h11.55s1.16-.02,2.5-.23c2-.32,2.53-2.29,2.16-3.79-.36-1.5-2.29-1.57-2.29-1.57h-11.55s-2.5,5.59-2.5,5.59h.11ZM231.62,24.9c-.1,1.73-1.62,3.66-5.75,4.78,2.21,1.53,2.6,3.97,1.17,7.31h-6.3s.06-.16.15-.38c1.59-3.97,1.33-6.91-1.23-7.22h-11.41l-3.25,7.6h-6.43l7.6-17.79h18.24s7.52.21,7.2,5.7"/>
      <path d="M331.23,27.1h11.55s1.16-.02,2.5-.23c2.01-.32,2.53-2.29,2.16-3.79-.36-1.5-2.29-1.57-2.29-1.57h-11.54s-2.5,5.59-2.5,5.59h.11ZM353.6,24.9c-.1,1.73-1.63,3.66-5.75,4.78,2.21,1.53,2.6,3.97,1.17,7.31h-6.3s.06-.16.15-.38c1.59-3.97,1.33-6.91-1.23-7.22h-11.41l-3.25,7.6h-6.43l7.6-17.79h18.24s7.52.21,7.2,5.7"/>
      <path d="M50.17,16.25c-.01-6.65-3.38-11.4-9.31-13.91-2.41-1.03-5.27-1.6-8.32-1.76h-14.46c-3.04.16-5.91.73-8.32,1.76C3.84,4.85.48,9.61.49,16.27l.03,15.68c0,5.35,5.47,14.08,24.84,23.69,19.37-9.61,24.84-18.34,24.84-23.69l-.03-15.7ZM24.56,51.21C7.53,42.28,3.95,34.99,3.95,31.95v-3.63s8.56,0,8.56,0v3.63c0,2.46,2.39,7.68,12.05,14.21v5.05ZM21.06,33.78l-.03-26.56h-2.85c-3.8.43-5.7,3.45-5.7,9.04l.03,10.25H3.94v-10.25c-.02-5.03,2.35-8.54,7.11-10.56,1.97-.84,4.35-1.34,7.12-1.5h14.28c2.77.16,5.16.66,7.13,1.5,4.76,2.02,7.15,5.53,7.15,10.56l.02,10.25h-8.56l-.02-10.25c-.01-5.59-1.92-8.61-5.72-9.04h-2.85l.02,26.59c-1.7,1.44-3.32,2.62-4.26,3.29-.95-.68-2.58-1.86-4.3-3.32ZM46.76,31.95c0,3.04-3.57,10.33-20.61,19.26v-5.05c9.67-6.53,12.05-11.75,12.05-14.21v-3.63h8.57v3.63Z"/>
    </g>
  </g>
</svg>