<?xml version="1.0" encoding="UTF-8"?>
<svg id="Layer_2" data-name="Layer 2" xmlns="http://www.w3.org/2000/svg" viewBox="0 0 353.61 25.7">
  <g id="Layer_2-2" data-name="Layer 2">
    <path d="M66.82.07l-12.85,16.95L35.77.07h-16.53L0,25.63h14.93l12.71-17.02,18.27,17.02h16.6L81.75.07h-14.93ZM134.75.07h-30.42c-11.6,0-19.24,3.26-23.62,8.89-6.6,8.68-2.15,16.6,9.79,16.6h30.77c11.6,0,19.24-3.26,23.62-8.89C151.42,7.99,146.63.07,134.75.07ZM130.51,13.68c-2.22,3.13-5.56,4.38-11.46,4.38h-19.73c-4.79,0-6.6-3.06-4.24-6.32,2.08-2.85,5.42-4.1,11.04-4.1h20.42c4.79,0,6.25,2.92,3.96,6.04ZM211.85.07h-48.76l-19.38,25.56h17.02l15-19.8h22.78c2.78,0,3.13,1.53,2.22,2.85-.76,1.04-2.36,1.94-5.35,1.94h-20l18.68,15.07h18.41l-13.96-10.28h1.25c7.85,0,14.93-2.71,17.78-6.46,3.2-4.31,1.53-8.89-5.7-8.89ZM246.44,7.99h35.35l5.97-7.99h-43c-10.97,0-18.06,3.26-22.78,9.38-6.25,8.13-1.04,16.18,9.31,16.18h38.62l5.97-7.85h-35.84c-4.17,0-5.83-2.99-3.54-6.11,1.94-2.57,5.14-3.61,9.93-3.61ZM340.49,0h-30.42c-11.6,0-19.24,3.26-23.62,8.89-6.6,8.68-2.15,16.6,9.79,16.6h30.77c11.6,0,19.24-3.26,23.62-8.89,6.6-8.61,1.81-16.6-10.14-16.6ZM336.32,13.61c-2.22,3.13-5.56,4.38-11.46,4.38h-19.73c-4.79,0-6.6-3.06-4.24-6.32,2.08-2.85,5.42-4.1,11.04-4.1h20.42c4.79,0,6.18,2.99,3.96,6.04Z"/>
  </g>
</svg>