<?xml version="1.0" encoding="UTF-8"?>
<svg id="Layer_2" data-name="Layer 2" xmlns="http://www.w3.org/2000/svg" viewBox="0 0 353.61 45.19">
  <g id="Layer_2-2" data-name="Layer 2">
    <g>
      <path d="M20.86,15.29c-1.99,1.12-3.33,3.24-3.33,5.68H0C.02,12.07,4.85,4.31,12.04.13l8.83,15.16ZM48.33,20.97h-17.76c0-2.41-1.31-4.52-3.26-5.64L36.06,0c7.31,4.14,12.24,11.97,12.27,20.97ZM36.28,41.94c-3.56,2.07-7.7,3.25-12.12,3.25s-8.86-1.28-12.53-3.49l9.13-15.1c.96.55,2.08.87,3.26.87s2.18-.28,3.1-.79l9.15,15.25ZM26.67,20.97c0,1.05-.63,1.96-1.52,2.38-.33.16-.7.24-1.1.24-.45,0-.87-.12-1.25-.31-.81-.44-1.37-1.3-1.37-2.29s.56-1.87,1.38-2.31c.37-.19.79-.31,1.23-.31.49,0,.93.13,1.32.36.78.44,1.3,1.28,1.3,2.25h0Z"/>
      <path d="M213.21,10.92h-11.23l-8.39,5.82-6.52,17.91h10.53l3.36-8.73h6.16c3.12-.1,11.85-.54,14.56-7.45,2.94-7.46-6.6-7.55-8.47-7.55h0ZM211.42,18.03c-.38,2.88-3.43,2.89-4.59,2.89h-4.18l1.87-5.22,4.77.02c.64,0,2.33.8,2.14,2.31h0ZM94.43,11.31l-8.72,23.33h-9.25l-7.82-12.67-4.94,12.67h-9.82l6.87-17.91,7.88-5.43h3.57l7.88,12.62,4.87-12.62h9.47ZM148.98,19.89l7.37,14.75h-12.45l-3.6-10-7.01,3.97-2.06,6.04h-10.23l6.23-17.02,8.85-6.8h3.7l-3.24,8.63,14.3-8.63h13.79l-15.65,9.07ZM174.46,16.12l-1.28,3.43h16.35l-2,4.9h-15.95l-1.65,4.22h17.54l-1.95,5.98h-27.78l6.37-17.54,8.54-6.19h21.04l-1.95,5.2h-17.29ZM336.52,16.12l-1.23,3.82h12.69l-1.85,4.71h-12.69l-3.66,9.72h-10.41l6.93-17.51,7.89-6.03h19.41l-2.13,5.3h-14.97ZM127.9,10.82l-5.93,15.46s-3.62,5.68-8.79,7.19c-4.02,1.17-15,1.63-19.09-.22-4.45-2.01-3.6-5.66-3.6-5.66l3.39-10.52,8.54-6.25h4.17l-5.85,14.89s-.91,3.46,4.22,3.46c5.99,0,7.62-3.57,7.62-3.57l5.4-14.78h9.92ZM253.34,16.39c-.31-5.6-6.74-5.47-6.74-5.47h-14.67l-8.18,5.47-6.84,18.26h10.23l3.44-9.73,3.35.02,4.61,9.72h10.82s-1.6-5.92-2.68-7.63c-1.2-1.93-3.75-3.18-3.75-3.18,0,0,10.74-1.41,10.41-7.46h0ZM242.89,18.05c-.49,2.44-3.98,2.44-3.98,2.44l-6.72-.03,2.01-4.54h7.1s1.93.43,1.6,2.13Z"/>
      <path d="M273.95,10.97c-12.18,0-19.36,5.35-21.34,11.55-2.09,6.5-.02,11.89,11.36,11.89,13.07,0,19.28-4.35,22.02-11.73,3.38-9.11-4.74-11.71-12.04-11.71ZM275.97,22.81c-1.15,3.24-3.75,6.43-9.09,6.43-4.57,0-5.84-2.27-4.41-6.45,1.12-3.25,4.04-6.45,8.68-6.45,4.79,0,6.51,1.65,4.82,6.47ZM310.05,10.97c-12.19,0-19.36,5.35-21.34,11.55-2.09,6.51-.02,11.89,11.36,11.89,13.07,0,19.28-4.35,22.02-11.73,3.37-9.11-4.75-11.71-12.04-11.71ZM312.07,22.81c-1.15,3.24-3.75,6.43-9.09,6.43-4.57,0-5.84-2.27-4.41-6.45,1.12-3.25,4.04-6.45,8.68-6.45,4.78,0,6.52,1.65,4.82,6.47Z"/>
    </g>
  </g>
</svg>