<?xml version="1.0" encoding="UTF-8"?>
<svg id="Layer_2" data-name="Layer 2" xmlns="http://www.w3.org/2000/svg" viewBox="0 0 353.61 38.22">
  <g id="Layer_2-2" data-name="Layer 2">
    <g id="Layer_1-2" data-name="Layer 1-2">
      <g>
        <path d="M46.58,0C30.67,0,7.53,2.41,1.16,19.11c-6.37,16.7,14.93,19.1,30.83,19.1s39.05-2.41,45.42-19.1C83.78,2.41,62.48,0,46.58,0ZM60.79,19.11c-4.01,10.73-17.11,12.27-26.07,12.27s-20.92-1.55-16.9-12.27c4-10.73,17.11-12.27,26.07-12.27s20.92,1.55,16.91,12.27h-.01Z"/>
        <path d="M208.13,1.16h-45.84l-14.5,35.89h47.11c8.07,0,19.83-1.18,23.12-9.31,2.55-6.32-3.39-8.7-9.97-9.34v-.18c6.1-.75,12.32-3.06,14.5-8.45,3.03-7.53-6.95-8.62-14.42-8.62h0ZM202.36,25.87c-1.42,3.52-6.07,4.02-9.24,4.02h-26.71l3.34-8.04h26.62c3.18,0,7.41.5,5.99,4.02ZM205.98,11.52c-1.21,3.02-5.2,3.45-7.93,3.45h-25.45l2.78-6.9h25.46c2.73,0,6.36.43,5.14,3.45Z"/>
        <path d="M134.21,1.16h-43.84l-14.45,35.89h15.88l5.27-13.06h12.68l16.09,13.06h19.06l-16.98-13.19c10.58-.52,21.25-2.83,24.5-11.29,3.84-9.98-8.78-11.41-18.21-11.41h-.01ZM135.86,12.58c-1.59,3.92-6.77,4.49-10.34,4.49h-25.64l3.63-8.99h25.64c3.55,0,8.29.56,6.7,4.49h.01Z"/>
        <path d="M336,1.16h-18.52l-41.54,28.72h-21.98c-7.11,0-15.76-.86-15.32-7.75h37.85l2.78-6.89h-37.76c4.93-6.17,13.86-7.17,20.68-7.17h30.56l2.79-6.91-29.72.02c-14.93,0-36.64,2.26-42.62,17.93-5.98,15.68,14.01,17.93,28.94,17.93h30.81l10.79-7.47h38.62l3.66,7.47h17.6L336.01,1.16h-.01ZM303.69,22.71l18.88-13.05,6.39,13.05h-25.27,0Z"/>
      </g>
    </g>
  </g>
</svg>