<?xml version="1.0" encoding="UTF-8"?>
<svg id="Layer_2" data-name="Layer 2" xmlns="http://www.w3.org/2000/svg" xmlns:xlink="http://www.w3.org/1999/xlink" viewBox="0 0 353.61 66.4">
  <defs>
    <style>
      .cls-1 {
        fill: none;
      }

      .cls-2 {
        clip-path: url(#clippath-1);
      }

      .cls-3 {
        clip-path: url(#clippath);
      }
    </style>
    <clipPath id="clippath">
      <rect class="cls-1" x="0" y="0" width="353.61" height="66.4"/>
    </clipPath>
    <clipPath id="clippath-1">
      <rect class="cls-1" x="0" y="0" width="353.61" height="66.4"/>
    </clipPath>
  </defs>
  <g id="Layer_2-2" data-name="Layer 2">
    <g id="Artwork_5" data-name="Artwork 5">
      <g class="cls-3">
        <g class="cls-2">
          <path d="M5.02,29.65c-.03-1.74.01-3.47.17-5.2.46-5.09,1.74-9.92,4.55-14.25,2.05-3.16,4.74-5.62,8.05-7.42.04-.02.08-.04.12-.05,0,0,.02,0,.05,0-1.51,2.08-2.61,4.35-3.32,6.82.52-.47,1.04-.94,1.56-1.4,2.48-2.2,5.14-4.15,8.13-5.6C27.15,1.19,30.09.34,33.21.08c4.18-.35,8.19.4,12.09,1.89.45.17.9.36,1.34.59-.57.05-1.14.1-1.71.15-4.54.46-8.96,1.37-13.13,3.29-2.26,1.04-4.33,2.37-6.1,4.14-2.21,2.21-3.66,4.84-4.33,7.89-.55,2.49-.62,5-.21,7.51.14.84.37,1.65.75,2.42.61,1.23,1.58,1.88,2.95,1.92,1.45.05,2.82-.3,4.14-.87,1.97-.84,3.71-2.03,5.21-3.53,1.28-1.28,1.43-2.87.79-4.53-.33-.86-.88-1.58-1.52-2.24-.09-.09-.19-.17-.3-.26.56.16,1.09.35,1.62.46,1.07.22,2.17.16,3.26.16,1.04,0,2.09-.08,3.13.15,1.33.29,1.89.86,2.17,2.18,1.85.36,3.23,1.3,3.91,3.21-.15-.05-.23-.07-.32-.1-1.18-.39-2.38-.58-3.62-.41-1.6.23-2.79,1.07-3.51,2.51-1.21,2.39-2.39,4.8-3.56,7.21-.56,1.14-.82,2.36-.78,3.63,0,.26.05.53.11.79.26,1.08,1.03,1.67,2.16,1.69,1.74.03,3.43-.29,5.07-.87,2.98-1.05,5.54-2.77,7.8-4.95,4.2-4.05,7-8.93,8.45-14.58.6-2.35.86-4.74.8-7.16,0-.14-.01-.29-.02-.47.04.06.07.08.08.11,1.11,2.92,1.93,5.91,2.31,9.02.69,5.6-.16,10.96-2.53,16.07-.67,1.44-1.46,2.83-2.2,4.24-.03.06-.07.12-.13.23,1.28-.28,2.34-.86,3.33-1.62.98-.76,1.81-1.67,2.53-2.68l.06.02c-.07.39-.12.78-.2,1.16-.59,2.83-1.94,5.25-3.91,7.35-1.82,1.94-3.97,3.43-6.32,4.63-2.77,1.42-5.68,2.44-8.73,3.05-.07.01-.13.03-.2.08,2.3.95,4.61.78,6.96.06-.3.31-.59.63-.91.92-1.5,1.38-3.26,2.32-5.15,3.05-2.22.86-4.52,1.39-6.87,1.7-1.91.26-3.82.37-5.75.34-4.56-.07-9.02-.8-13.37-2.19-.29-.09-.58-.19-.93-.3.18-.09.31-.16.45-.23,2.66-1.3,5.24-2.74,7.61-4.53,1.58-1.19,3.04-2.52,4.19-4.15.67-.95,1.2-1.98,1.5-3.11.01-.04.02-.08.04-.17-.11.05-.19.09-.27.13-3.86,2.13-7.8,4.08-11.9,5.72-3.02,1.2-6.1,2.23-9.29,2.89-1.99.41-3.99.68-6.03.58-.53-.02-1.05-.12-1.58-.19-.08-.01-.16-.04-.28-.08.44-.3.84-.56,1.24-.84,3.03-2.09,5.88-4.39,8.46-7.03,1.84-1.88,3.5-3.89,4.73-6.23.78-1.47,1.34-3,1.48-4.67,0-.04,0-.08.01-.18-.3-.02-.6-.05-.89-.06-2.07-.05-3.89.68-5.59,1.8-2.04,1.34-3.72,3.08-5.27,4.95-1.84,2.23-3.43,4.63-4.91,7.11-.08.13-.16.26-.27.46-.07-.34-.12-.63-.18-.91-.6-3.14-1.02-6.31-1.16-9.51-.12-2.84-.01-5.68.36-8.5.41-3.1,1.15-6.13,2.27-9.06.02-.05.04-.09.08-.18.43,2.94.79,5.85,2.27,8.46M42.23,21.09c-1-.06-1.69-.64-2.4-1.2-.01.06-.03.08-.02.1.17.7.53,1.28,1.11,1.7.27.2.56.17.82-.06.18-.16.32-.36.49-.55"/>
          <path d="M307.08,66.4c-.73-.21-1.49-.35-2.19-.64-1.36-.56-1.83-1.84-1.26-3.27h4.31c.29,1.09.57,1.35,1.71,1.35.68,0,1.41-.03,2.04-.27.39-.15.61-.72.91-1.11-.35-.23-.68-.59-1.06-.67-1.33-.28-2.69-.46-4.03-.68-2.44-.4-3.16-1.96-1.91-4.11.61-1.05,1.51-1.75,2.62-2.14,2.66-.94,5.36-.93,8.05-.18,1.46.41,2.11,1.43,1.9,2.74-.03.2-.33.5-.51.5-1.25.04-2.51.02-3.83.02-.06-.93-.66-1.26-1.44-1.32-.99-.08-2.01-.14-2.77.67-.48.51-.33.93.37,1.06,1.55.29,3.11.53,4.67.79,2.7.45,3.45,2.1,1.97,4.41-1.08,1.7-2.81,2.3-4.67,2.65-.23.04-.45.12-.67.18h-4.18Z"/>
          <path d="M260.6,66.4c-.41-.1-.81-.2-1.22-.3-2.48-.57-3.54-2.19-3.05-4.69.84-4.35,3.96-7.06,8.4-7.22,1.17-.04,2.36,0,3.52.17,2.51.37,3.64,2.01,3.22,4.56h-4.12c-.51-2.01-1.74-2.63-3.76-1.94-1.89.65-3.48,3.35-3.12,5.31.14.78.66,1.23,1.41,1.36,1.72.3,3.17-.17,4.28-1.58.19-.24.58-.46.88-.47,1.18-.05,2.35-.02,3.68-.02-.57,1.18-1.27,2.12-2.21,2.88-1.31,1.06-2.85,1.56-4.49,1.79-.23.03-.45.11-.68.16h-2.73Z"/>
          <path d="M229.88,66.4c-.47-.09-.93-.18-1.4-.28-2.74-.58-3.82-2.27-3.21-4.99.94-4.17,3.94-6.76,8.22-6.92,1.4-.06,2.85.01,4.22.29,2.01.41,2.98,1.95,2.74,3.99-.02.18-.29.46-.44.47-1.25.04-2.51.02-3.74.02-.57-2.2-2.17-2.85-4.24-1.82-1.55.77-2.86,3.16-2.68,4.89.09.92.65,1.51,1.6,1.62,1.69.19,3.12-.24,4.15-1.7.13-.19.4-.38.62-.39,1.25-.04,2.51-.02,3.89-.02-.85,1.8-2.05,3.13-3.79,3.85-1,.41-2.1.57-3.16.85-.22.06-.45.11-.67.16h-2.09Z"/>
          <path d="M353.61,23.97c-.52,1.57-.98,3.02-1.51,4.44-.07.19-.48.36-.73.37-2.52.03-5.04.02-7.56.02-5.39,0-10.78.01-16.16-.01-.61,0-.89.17-1.08.76-2.24,6.76-4.51,13.5-6.75,20.26-.2.62-.44.87-1.14.87-5.76-.04-11.53-.02-17.29-.02h-1.4c2.45-7.32,4.86-14.53,7.29-21.8h-16.55c-.15,1.86-.15,3.69-.46,5.47-.82,4.6-3.05,8.54-6.05,12.06-1.02,1.2-2.18,2.29-3.26,3.44-.41.44-.88.6-1.49.6-7.53-.02-15.06,0-22.6-.01-9.03-.01-18.06-.04-27.1-.03-.69,0-.97-.23-1.19-.85-1.67-4.67-1.14-9.23.73-13.7,1.9-4.54,4.91-8.27,8.57-11.49.23-.21.61-.26.93-.35.17-.05.37,0,.56,0h114.24ZM273.68,27.68c-.24-.03-.4-.06-.55-.06-6.99,0-13.98,0-20.97-.02-.63,0-.74.34-.89.79-1.5,4.46-3.01,8.92-4.51,13.38-.43,1.28-.85,2.55-1.28,3.84.16.03.21.05.26.05,7.15,0,14.3,0,21.46.02.48,0,.64-.19.77-.6,1.44-4.39,2.9-8.78,4.34-13.17.46-1.39.9-2.79,1.37-4.22"/>
          <path d="M161.99,23.97h.9c5.92,0,11.85.01,17.77-.02.66,0,.92.22,1.13.81,2.07,5.62,4.18,11.23,6.24,16.86.21.58.49.76,1.09.75,2.33-.03,4.66,0,7-.03.38,0,.85-.19,1.12-.45,5.5-5.25,11.03-10.48,16.44-15.83,1.53-1.51,3.03-2.23,5.23-2.15,4.98.18,9.97.06,14.96.06h1.05c-.23.28-.35.46-.5.61-7.38,7.09-14.77,14.17-22.16,21.26-1.47,1.41-2.92,2.84-4.42,4.21-.3.27-.78.5-1.17.5-11.37.03-22.73.02-34.1.02-.42,0-.73,0-.92-.52-3.16-8.56-6.35-17.1-9.53-25.65-.04-.1-.06-.2-.12-.42"/>
          <path d="M99.81,41.1c.49-1.46.93-2.88,1.46-4.28.07-.2.55-.34.84-.34,4.15-.02,8.31-.01,12.46-.01h.93c.96-2.86,1.91-5.7,2.88-8.61-.31-.02-.54-.05-.76-.05-7.21,0-14.42,0-21.63-.02-.64,0-.87.24-1.05.79-2.35,7.08-4.73,14.15-7.09,21.23-.15.44-.29.71-.86.71-5.79-.02-11.58-.02-17.37-.02-.11,0-.21-.02-.43-.04.09-.3.17-.57.25-.83,2.78-8.29,5.57-16.58,8.33-24.88.2-.61.46-.81,1.12-.81,17.47.02,34.95.02,52.42,0,.7,0,.98.26,1.23.84,1.76,4.25,1.6,8.51.12,12.78-.36,1.03-.79,2.05-1.26,3.04-.11.24-.49.51-.75.51-10.16.03-20.31.02-30.47.02-.1,0-.2-.03-.38-.05"/>
          <path d="M131.21,50.56c.87-2.61,1.69-5.06,2.51-7.52,2.05-6.11,4.1-12.22,6.14-18.33.15-.45.29-.77.91-.76,6.08.03,12.16.02,18.24.02.18,0,.36.03.63.05-.66,1.95-1.3,3.85-1.94,5.74-2.23,6.67-4.47,13.34-6.67,20.01-.2.61-.47.81-1.12.81-5.92-.03-11.84-.02-17.76-.02h-.94Z"/>
          <path d="M293.65,59.08h7.15c-.25.78-.42,1.47-.7,2.12-.07.17-.47.28-.73.28-1.82.02-3.64.06-5.46,0-.81-.03-1.26.18-1.38,1.01-.04.31-.17.61-.29.99h7.61c-.25.82-.46,1.55-.71,2.26-.05.14-.31.3-.47.31-3.67.02-7.33.01-11.09.01.06-.27.08-.47.14-.66,1.08-3.36,2.17-6.71,3.22-10.08.18-.57.4-.8,1.04-.8,3.53.03,7.07.02,10.73.02-.24.79-.43,1.52-.71,2.22-.07.17-.47.29-.72.29-2.04.02-4.07.05-6.11,0-.72-.02-1.09.18-1.19.91-.05.34-.2.66-.35,1.15"/>
          <path d="M243.09,54.53h4.46c.32,1.52.64,3.05,1.01,4.77.36-.41.63-.71.89-1.02.96-1.12,1.9-2.25,2.87-3.36.16-.18.41-.39.63-.39,1.33-.04,2.66-.02,4.19-.02-1.29,1.34-2.44,2.55-3.61,3.74-1.06,1.1-2.09,2.23-3.22,3.26-.87.8-1.12,1.85-1.45,2.89-.51,1.6-.5,1.6-2.19,1.6h-2.18c.31-.98.56-1.88.88-2.74.22-.61.22-1.15,0-1.77-.78-2.27-1.5-4.57-2.28-6.96"/>
          <path d="M280.96,54.5c-.95,2.97-1.86,5.83-2.81,8.82h6.97c-.27.87-.49,1.64-.76,2.39-.05.15-.3.33-.45.33-3.45.02-6.9.01-10.5.01.43-1.33.81-2.51,1.18-3.69.76-2.39,1.54-4.78,2.28-7.18.16-.52.39-.72.95-.69,1.01.05,2.02.02,3.14.02"/>
        </g>
      </g>
    </g>
  </g>
</svg>