<?xml version="1.0" encoding="UTF-8"?>
<svg id="Layer_2" data-name="Layer 2" xmlns="http://www.w3.org/2000/svg" viewBox="0 0 322 73.22">
  <g id="Layer_2-2" data-name="Layer 2">
    <g>
      <path d="M31.7,0h.05c10.59,6.09,21.16,12.2,31.74,18.31,0,8.98,0,17.97,0,26.95,0,5.87-3.32,11.61-8.4,14.54-7.72,4.47-15.46,8.93-23.18,13.42h-.33c-1.94-1.11-3.87-2.23-5.8-3.35,8.3-4.81,16.61-9.6,24.91-14.4,1.06-.63,2.18-1.18,3.1-2.02,2.39-2.1,3.8-5.26,3.74-8.45-.02-7.76.03-15.53-.02-23.29-8.6-4.92-17.18-9.89-25.76-14.85-6.81,3.9-13.59,7.85-20.4,11.76-3.28,1.87-5.38,5.58-5.41,9.35-.02,10.16,0,20.33-.01,30.49-1.97-1.12-3.92-2.29-5.91-3.38C-.04,46.13.03,37.17,0,28.22c-.08-5.9,3.21-11.7,8.29-14.69C16.09,9.01,23.91,4.53,31.7,0Z"/>
      <path d="M31.73,12.8c6.89,3.96,13.78,7.93,20.66,11.91,0,6.85,0,13.7,0,20.55,0,2.05-1.21,4.04-3,5.03-7.67,4.36-15.33,8.76-23.01,13.11,0-3.91,0-7.82,0-11.73,5.28-3.01,10.57-5.99,15.84-9,0-4.02,0-8.05,0-12.07-3.51-2.01-6.99-4.06-10.52-6.05-3.47,2.04-6.96,4.03-10.44,6.04,0,12.23,0,24.45,0,36.68-3.39-1.94-6.77-3.91-10.16-5.85-.02-11.07,0-22.13,0-33.2-.06-2.08,1.1-4.14,2.9-5.18,5.91-3.41,11.82-6.81,17.73-10.23Z"/>
      <path d="M80.81,47.91c0-7.52-.02-15.03,0-22.55,9.2,0,18.4,0,27.59,0,.81,0,1.73.17,2.27.84.52.64.53,1.5.53,2.28,0,3.31,0,6.62,0,9.93,0,.75-.05,1.59-.57,2.18-.61.7-1.6.8-2.47.8-6.38,0-12.77,0-19.15,0-.01,2.17.02,4.34-.02,6.52-2.73-.01-5.46,0-8.18,0M89.01,29.7c0,2.49,0,4.97,0,7.46,4.78,0,9.56,0,14.34,0,0-2.49,0-4.97,0-7.46-4.78,0-9.56,0-14.34,0Z"/>
      <path d="M118.14,25.55c.47-.16.96-.19,1.45-.2,8.73,0,17.45,0,26.18,0,.81,0,1.72.16,2.28.81.48.56.55,1.33.55,2.05,0,5.68,0,11.36,0,17.04,0,.68-.13,1.43-.64,1.93-.57.58-1.42.71-2.2.71-8.73,0-17.46,0-26.2,0-.84,0-1.77-.13-2.36-.79-.57-.64-.58-1.56-.58-2.37.01-5.6-.01-11.2.01-16.79-.04-1.01.46-2.12,1.5-2.41M124.92,29.7c0,4.62,0,9.24,0,13.86,5.13,0,10.27,0,15.4,0,0-4.63.04-9.26-.02-13.89-5.13.03-10.25,0-15.38.02Z"/>
      <path d="M154.06,25.36c2.77,0,5.54,0,8.31,0,0,6.05,0,12.1,0,18.15,5.59.02,11.17,0,16.76.01.42,1.46.84,2.92,1.25,4.38-7.8.01-15.61,0-23.41,0-.84,0-1.78-.13-2.36-.8-.5-.58-.56-1.38-.56-2.11,0-6.55,0-13.09,0-19.63Z"/>
      <path d="M180.05,25.36c2.74,0,5.48-.02,8.22.02.76,2.76,1.55,5.51,2.32,8.27,4.28,0,8.57.02,12.85,0-.01-2.76,0-5.52,0-8.28,2.77,0,5.54,0,8.31,0,0,6.54,0,13.09,0,19.63,0,.84-.12,1.79-.79,2.37-.64.57-1.56.58-2.37.57-7.46-.02-14.92,0-22.38-.05-.41-1.46-.84-2.92-1.25-4.37,6.16,0,12.32,0,18.48,0v-5.68c-6-.02-12,.01-18-.01-.96.01-2-.49-2.26-1.48-1.07-3.65-2.08-7.32-3.12-10.98Z"/>
      <path d="M217.84,26.05c.71-.69,1.77-.7,2.7-.7,9.21.04,18.42-.05,27.63.04-.04,1.51,0,3.03-.02,4.54-7.56,0-15.11,0-22.67,0,0,4.53,0,9.05,0,13.58,4.86,0,9.71,0,14.57,0v-5.11c-2.12,0-4.25,0-6.37,0-.4-1.36-.8-2.72-1.16-4.08,5.21.02,10.43-.01,15.64.01-.04,4.53.05,9.06-.04,13.58-9.44-.05-18.89,0-28.34-.03-.81-.02-1.7-.26-2.17-.96-.45-.65-.43-1.46-.44-2.21,0-5.5,0-11,0-16.49,0-.77.09-1.62.67-2.18Z"/>
      <path d="M255.37,25.48c.74-.17,1.51-.11,2.27-.12,8.31,0,16.62,0,24.94,0,.83,0,1.76.1,2.37.73.61.63.63,1.57.64,2.39,0,5.43,0,10.85,0,16.28,0,.77,0,1.62-.5,2.27-.53.69-1.45.87-2.27.88-8.74,0-17.47,0-26.2,0-.85,0-1.79-.1-2.4-.76-.6-.64-.6-1.57-.61-2.39.01-5.6-.01-11.2.01-16.81-.07-1.11.58-2.28,1.75-2.47M261.89,29.7c0,4.62,0,9.24,0,13.87,5.14,0,10.27,0,15.41,0,0-4.62,0-9.24,0-13.87-5.14,0-10.27,0-15.41,0Z"/>
      <path d="M291.01,25.37c9.39-.01,18.77,0,28.16,0,.81,0,1.71.16,2.27.8.55.63.55,1.51.56,2.31,0,6.48,0,12.96,0,19.44-2.77,0-5.54,0-8.3,0-.02-6.05,0-12.11,0-18.16-4.85,0-9.7,0-14.56,0,0,6.05,0,12.1,0,18.16-2.7.02-5.39-.02-8.09.02-.07-7.52-.01-15.04-.03-22.56Z"/>
    </g>
  </g>
</svg>