<?xml version="1.0" encoding="UTF-8"?>
<svg id="Layer_2" data-name="Layer 2" xmlns="http://www.w3.org/2000/svg" xmlns:xlink="http://www.w3.org/1999/xlink" viewBox="0 0 353.61 25.9">
  <defs>
    <style>
      .cls-1 {
        fill: none;
      }

      .cls-2 {
        clip-path: url(#clippath-1);
      }

      .cls-3 {
        clip-path: url(#clippath);
      }
    </style>
    <clipPath id="clippath">
      <rect class="cls-1" y="0" width="353.61" height="25.9"/>
    </clipPath>
    <clipPath id="clippath-1">
      <rect class="cls-1" y="0" width="353.61" height="25.9"/>
    </clipPath>
  </defs>
  <g id="Layer_2-2" data-name="Layer 2">
    <g id="Artwork_86" data-name="Artwork 86">
      <g class="cls-3">
        <g class="cls-2">
          <path d="M41.86,21.94c4.94,0,7.21-1.73,8.15-3.28l7.24-14.48C58.5,1.67,57.22.02,53.22.02,48.56.02,17.63-.02,12.96.02L0,25.83h18l1.96-3.89h21.89ZM21.93,17.68c1.69-3.35,2.94-5.85,4.23-8.36s1.08-2.3,2.77-5.65h8.56c1.32-.03,1.79.37,1.42,1.12l-2.27,4.6-3.72,7.38c-.51.85-2.03.91-2.47.91h-8.53ZM281.96.05l-13.13,25.82h18.14L300.1.02l-18.14.03ZM85.37,25.9h17.93l-2.3-5.62c.54-.1,2.88-.41,4.13-2.71l6.63-13.37c1.25-2.5-.03-4.16-4.03-4.16h-39.93l-13.16,25.82h17.9l2.06-4.13h9.2l1.56,4.16ZM76.74,17.61l6.9-13.57h8.66c1.35,0,1.59.44,1.22,1.18l-5.68,11.17c-.68,1.22-2.2,1.22-2.64,1.22h-8.46ZM157.27,22.41s8.97-18.14,9-18.17c1.25-2.5-.03-4.16-4.03-4.16L129.02.02c-5.75,0-8.12,1.62-9.14,3.65-.74,1.45-8.93,18.2-8.93,18.2-1.39,2.64.03,3.93,2.84,3.93,5.48,0,29.51.1,35.02.07,4.57,0,7.24-1.39,8.46-3.45ZM130.71,22.01c-1.35,0-1.83-.34-1.45-1.08l3.15-6.33s3.42-7.14,4.67-9.61c.37-.74,1.22-1.12,2.57-1.12h6.97c1.35-.03,1.83.34,1.45,1.08,0,0-6.56,13.47-7.82,15.94-.37.74-1.22,1.12-2.57,1.12h-6.97ZM307.17,3.43s-11.71,22.43-11.1,22.43h17.83l10.42-20.91c.37-.74,1.12-1.08,2.3-1.08s7.68.03,7.92.07c.24.03.81.47.54.98l-10.46,20.94h17.76c.58-1.08,10.73-21.62,10.76-21.69,1.25-2.47-.03-4.16-4.03-4.16h-33.84c-5.58.03-7.68,2.54-8.12,3.42ZM244.23,25.87h17.93l10.76-21.69c1.25-2.47-.03-4.16-4.03-4.16h-33.36c-2.03,0-7.11.44-8.7,3.62-1.59,3.18-11.06,22.2-11.06,22.2h17.9l1.93-3.82h10.56l-1.93,3.86ZM237.43,17.78l6.33-12.79c.41-.74,1.25-1.12,2.57-1.12h6.94c1.32-.03,1.79.34,1.39,1.12-1.59,3.18-6.33,12.79-6.33,12.79h-10.9ZM180.21,25.87c.61-1.15,2-3.93,2-3.93h21.89c4.91,0,7.21-1.73,8.15-3.28l7.24-14.48c1.25-2.47-.03-4.16-4.03-4.16h-40.27l-12.96,25.85h17.97ZM184.17,17.71c1.69-3.35,2.94-5.85,4.23-8.36,1.29-2.5,1.08-2.3,2.77-5.65h8.56c1.32-.03,1.79.34,1.42,1.08l-2.27,4.64-3.72,7.38c-.51.85-2.03.91-2.47.91h-8.53Z"/>
        </g>
      </g>
    </g>
  </g>
</svg>