<?xml version="1.0" encoding="UTF-8"?>
<svg id="Layer_2" data-name="Layer 2" xmlns="http://www.w3.org/2000/svg" viewBox="0 0 94.55 73.55">
  <g id="Layer_2-2" data-name="Layer 2">
    <g>
      <polygon points="31.76 60.58 32.53 61.13 32.92 60.58 32.15 60.03 31.76 60.58"/>
      <polygon points="32.31 59.8 33 60.35 33.39 59.8 32.69 59.25 32.31 59.8"/>
      <path d="M39.58,21.19c1.32-.16,2.24-1.02,3.33-1.41.08-.08.23-.08.31-.08-.31-.63-1.32-1.02-2.17-.86-.54,1.02-1.93,1.33-2.24,2.5h.08c.31.16.46.16.69-.15Z"/>
      <path d="M60.78,30.64c.39-.31.7-.62,1.24-.47.62-.7,1.94-.47,2.4-1.33-.38-.86-1.39-.08-2.01-.31-.39.86-2.01,1.1-1.63,2.11Z"/>
      <path d="M26.73,31.03c-.46-1.79-1.47.23-2.32.08-.38.31-.38.86-.62,1.25h.23c.85-.39,2.16-.55,2.71-1.33Z"/>
      <polygon points="5.63 47.88 5.22 49.44 7.07 49.44 7.48 47.88 5.63 47.88"/>
      <polygon points="10.95 53.66 12.79 53.66 14.29 47.88 12.43 47.88 10.95 53.66"/>
      <path d="M94.22,46.21c-.4-.59-1.11-.94-1.88-.94-.61,0-1.2.2-1.66.54l-.06-.46h-7.29c.65-2.76.99-5.64.99-8.6C84.31,16.48,68.31,0,48.63,0S12.95,16.48,12.95,36.74c0,2.93.34,5.79.97,8.53-.09,0-.18,0-.25,0-1.31,0-2.71.3-3.63.96-.49-.39-1.12-.61-1.71-.73-.59-.12-1.13-.15-1.47-.15H1.4l.81,2.18-2.21,8.66h3.84l-.07.27c-.11.57.03,1.15.4,1.59.41.5,1.08.79,1.83.79,1.27,0,2.28-.7,2.52-1.76l.36-1.38c.69.36,1.62.56,2.68.56s2.55-.22,3.58-.92c.99.82,2.54.92,3.23.92h.02c6.32,10.37,17.51,17.28,30.24,17.28s24.1-7.03,30.39-17.55c.34.18.74.27,1.17.27.55,0,1.09-.18,1.54-.49.41.31.93.49,1.47.49.23,0,.46-.03.67-.08h8.45l2.13-8.32c.19-.57.1-1.17-.23-1.67ZM89.22,54.83l-.63-4.7-1.26,4.7h-2.02l1.89-7.38-.28-.75h2.51l.63,4.67,1.01-3.96c.18-.47.7-.79,1.27-.79.32,0,.61.13.75.34.1.16.12.34.05.52l-1.87,7.34h-2.05ZM83.93,54.74c-.21.11-.46.17-.72.17-.21,0-.41-.06-.57-.16-.08-.05-.16-.11-.21-.18-.1-.14-.14-.29-.1-.43l1.77-6.69-.28-.75h2.56l-1.97,7.49c-.05.21-.23.4-.48.54ZM80.2,54.91c-.18,0-.35-.03-.49-.09-.16-.07-.29-.16-.36-.28-.08-.14-.09-.28-.02-.42l.88-3.51h-1.77l-1.16,4.22h-2.1l1.32-4.97.64-2.41-.24-.65.02-.1h3.36c.35,0,.69.03,1,.08.03,0,.05,0,.07.01.52.09.95.25,1.23.47.08.05.15.11.2.18.01.01.02.03.03.04.14.17.18.36.14.54l-1.55,6.18c-.08.16-.22.32-.4.44-.22.16-.5.27-.8.27ZM65.34,60.11l-1.31.63c-.16.08-.31.08-.31,0l-.38-.47c-.15-.16.23-.7.78-1.1.54-.47,1.16-.62,1.31-.39l.08.16-.7.47-.08-.16-.78.47.31.39,1.32-.54c.15-.08.31-.08.31,0l.38.47c.16.16-.23.7-.77,1.1-.54.39-1.16.62-1.32.39l-.08-.16.69-.47.08.15.78-.47-.31-.47ZM44.14,64.96l.08-.78h-.15v-.23l1,.08-.15,1.1.93.08.08-1.02.85.08-.15,1.01c0,.16-.39.31-.85.31l-.16.94-.77-.16.08-.86c-.47-.16-.78-.39-.78-.55ZM40.12,63.24l-.47,1.57.85.23.08-.16.77.23-.08.16c-.08.23-.62.23-1.31.08-.62-.23-1.17-.62-1.08-.86l.46-1.41c.08-.31.7-.31,1.32-.08.69.23,1.16.55,1.08.86l-.08.08-.77-.23.08-.16-.85-.31ZM33.47,61.2l-.23.31c-.16.23-.78.08-1.32-.31l-1-.78,1.16-1.72-.08-.08.15-.23,1.08.86c.62.39.93.94.78,1.1l-.23.39c-.08.08-.16.08-.39.08.08.16.16.31.08.39ZM49.87,36.43c-.23-.78.23-2.03-.69-2.27l-.31-3.29c.46.94.77,2.19,1.31,2.97-.54.7-.23,1.72-.31,2.58ZM69.84,27.43c1.32-1.01,2.61-2.03,4.01-3.04h.38c-1.07,1.48-3,2.09-4.4,3.04ZM74.25,47.88l-1.68,6.32c-.09.39-.63.71-1.19.71-.31,0-.62-.13-.78-.34-.1-.14-.14-.29-.1-.43l1.66-6.27h-1.15l-.15.62h-1.18l.54-1.79h6.51l.04.11-.42,1.69h-1.17l.15-.62h-1.08ZM44.5,56.71l2.16-8.44-1.56,1.12-1.4,5.44h-2.1l1.42-5.48-1.05-1.13-1.67,6.6h-2.1l1.89-7.38-.18-.74h2.36l.03.04,1.87,2.04,2.97-2.08h2.04l-2.11,7.94h0s-.56,2.14-.56,2.14c-.08.42-.56.71-1.19.71-.35,0-.63-.12-.76-.31-.07-.09-.12-.25-.04-.47ZM69.62,47.49l-.6,2.37-1.27,4.97h-2.05l-.63-4.67-1.19,4.67h-2.09l1.88-7.38-.28-.75h2.51l.63,4.7,1.09-3.99c.09-.44.59-.78,1.18-.79h.02c.32,0,.61.13.75.34.1.16.12.34.05.52ZM57.21,53.66h1.78l1.68-6.25c.09-.44.6-.79,1.19-.79h.05c.28.02.54.13.7.32.12.15.17.34.13.52l-1.63,6.18c-.06.24-.28.46-.6.65-.62.36-1.63.61-2.68.61-1.12,0-2.03-.25-2.45-.66-.03-.03-.06-.07-.09-.1-.14-.17-.18-.36-.14-.55l1.54-6.14-.28-.75h2.56l-1.78,6.96ZM55.62,48.02l-1.47,5.63c-.04.17-.15.33-.33.47-.55.47-1.69.79-2.96.79-.99,0-1.85-.22-2.31-.57-.09-.06-.16-.13-.22-.2-.13-.17-.17-.35-.13-.54l1.47-5.71c.07-.28.36-.54.78-.75.62-.3,1.55-.51,2.5-.51.9,0,1.68.18,2.16.48h0c.14.09.25.19.34.29.15.18.21.4.16.61ZM30.83,50.5h0c-.32-.12-.6-.3-.75-.54-.12-.19-.16-.41-.09-.63l.14-.57.08-.34.23-.96-.33-.89h2.91l-.69,2.74h1.58l.49-1.93c.1-.5.67-.88,1.32-.88.36,0,.69.15.86.4.13.2.15.42.07.64l-.45,1.92c-.23.82-1.57,1.14-2.29,1.26l-1.09,4.25h-2.36l1.1-4.27c-.23-.04-.48-.11-.7-.2ZM32.85,34.71c.69-.47,1.62,0,2.47,0-.77.39-1.7.39-2.47,0ZM23.75,46.58h2.92l-.52,1.96,1.38-1.96h2.46l-.94,1.34h0s-1.14,1.63-1.14,1.63h1c.36,0,.71.35.71.72v.06s-.2.74-.2.74l-.81,3.17c-.21.43-.74.81-1.4.81-.38,0-.73-.16-.89-.42-.11-.17-.12-.37-.03-.56l.83-3.32h-1.51l-1.16,4.22h-2.36l1-3.76.23-.87.76-2.87-.33-.88ZM36.25,61.36l.08-.16.85.39-1.01,2.19-.69-.39.85-1.95-.08-.08ZM50.41,64.17c.69,0,1.24.16,1.32.39v.16l-.85.08v-.24l-.85.08.08,1.56h.85v-.23l.85-.08v.16c0,.23-.54.55-1.24.55-.7.08-1.24-.08-1.32-.39l-.08-1.49c0-.23.54-.47,1.24-.55ZM56.52,64.96l.39-.15.15.62-2.4.62-.54-2.11-.16.08-.08-.23,1.01-.23.46,1.95,1.24-.39-.08-.16ZM59.92,62.85l1.01-.47.15.23-1.08.47.31.63,1.16-.55-.08-.23.39-.16.23.55-2.24,1.09-.93-1.95-.15.08-.08-.23,2.4-1.1.31.55-.38.16-.08-.23-1.24.55.31.62ZM14.59,36.74C14.59,17.35,29.83,1.64,48.63,1.64c1.47,0,2.91.1,4.33.28.26.03.53.07.79.11.52.08,1.03.17,1.55.28h.01c.73.15,1.46.32,2.18.52.23.07.46.12.68.2.22.07.44.14.66.21.43.14.86.29,1.29.44.21.08.41.15.62.23.4.16.8.32,1.19.49h0c.38.17.76.34,1.14.52,11.58,5.62,19.6,17.74,19.6,31.81,0,3.01-.36,5.94-1.06,8.72h0c-.54-.1-1.03-.12-1.34-.12h-.55c.71-2.74,1.09-5.63,1.09-8.6,0-3.83-.69-7.5-1.85-10.95-.85-.7-2.48-.62-3.25-1.4-.31-1.18-2.09-.94-2.4-2.35-.45-.03-.83-.28-1.18-.6-.55.65-.71,1.62-1.53,2.17.6-.67,1.08-1.51,1.36-2.33-.48-.47-.92-1.02-1.43-1.19-.62,0-1.01-.3-1.32-.7-.07.33-.55.41-.77.62.07-.22.28-.91.68-.74-.55-.8-.88-1.89-2-1.99-.3.36-.59.63-.87.87h0c-.05.95.13,1.92-1.07,2.18.16.39.7.31.85.78-.23.86.62,2.19-.85,2.27-.23-.08-.38.16-.46.31.08.86-.08,1.72.46,2.42,1.01.16,1.78-.39,2.55-.78-.23.7-2.09,2.18-1,3.98-.23.39-.16.94.15,1.25,1.32.7,2.24,2.03,2.86,3.44.39.55.54,1.56,1.32,1.56.31-.08.31.24.54.47-.08.94.78,1.49,1.32,2.27l-.16.08c-1.47-1.01-3.33-1.72-4.33-3.36-.23-.94-1.24-1.25-1.86-1.64.16-.16.31-.31.31-.47-1.93-.47-2.16,2.03-3.48,2.81-1,.16-1.85.63-2.78.94-1.01.39-1.86.94-2.71,1.1-.69.08-.62.94-1.31,1.01-.31-.15-.62-.62-.54-1.01,1.62-2.34,4.64-2.03,6.11-4.69-.85-.39-1.78.08-2.71,0-.62-.08-1.16.7-1.7.31.54-.79,1.47-1.1,2.16-1.64v-.16c-.62-.47-1.16.47-1.7.7-.38.47-1.47.62-1.24,1.49.38,1.56-1.55.94-1.94,1.88-.62.23-.38-.55-.69,0l.54-2.27h.08c.54-1.57,1.55-2.9,1.78-4.61,2.09-1.49,4.72-2.81,5.26-5.55-.31-.39-.77,0-1.08,0v.08h-.23c.48-.55,1.37-.86,1.64-1.68-.52.42-.91,1.05-1.64,1.05-1.01-1.17-1.24-2.89-2.55-3.83-.73-1.69-2.54-2.07-4.03-2.88-.1-.05-.2-.11-.3-.17-1.16-1.33-2.24-2.81-3.56-4.14-.77.23-1.24-.24-1.78-.86-.02,0-.03,0-.04,0,.12.57.02,1.23-.19,1.71.31.47.78,0,1.08,0l.08-.08c.08.62.39,1.4,0,1.95-1.85.7-3.63-.31-5.33.86-.08.16.08.23.15.39,2.17-.47,4.49.39,6.65.47-.08,0-.85,0-1.08.4.15.39.15,1.01,0,1.25-1.55.47-3.25-.78-4.64.31-.31.31-1.17-.23-1.17.47.62.39,1.47-.08,2.33.24.23.39.69.47,1,.23.62-.55,1.24.31,1.94.16,0,.78.54,2.18-.47,2.5-.62-.31-.38-1.1-1-1.49-.47.23-.85.47-1.24.78.08,1.88.47,3.99.93,5.94-.93.55-.31,1.95-.23,2.81.93,2.74.78,5.94,1.62,8.76-.31.16-.08-.55-.31-.7-.23-1.25-.46-2.74-1.55-3.52-.38-1.4-.54-3.12-1.94-3.91-1-1.33-2.24-2.81-2.63-4.53-.23-.39-.85-.7-1.32-.47-.69,0-.31.94-.54,1.25-.39,0-.47-.7-.85-.15.23,1.09.93,2.03,1.62,2.89.16.47.23,1.01.62,1.49l.39-.23c.38.78.38,1.64.77,2.34-2.24-.47-1.16-2.89-2.71-4.07-.23-.7-.47-1.48-1.32-1.64-.23-.24-.46,0-.69.08-.31-1.17-.69-2.97-1.63-4.14-.23-.62.47-.86.47-1.25v-2.22c-.18.19-.36.38-.54.58-.62.62-.54,2.03-1.85,1.48-1.08-.78-1.63-1.64-2.55-2.5-.15.03-.29.06-.42.1.1.59-.35,1.33-.35,1.93-.69.62-1.63,1.17-2.71,1.1-.54.39-.54,1.1-.78,1.64-.16.86-1.86,1.72-.85,2.42.46-.08.69-.31,1.08-.55.54.08,1.62.31,1.7-.63-.16-.23.15-.55.15-.86.93-.08,1.7-.63,2.63-.7-1.85.47-1.39,2.74-2.55,3.91.23,1.63.62,3.18,1.23,4.73-.1-.17-.7-.87-.84-1.37-.23-1.02-.16-2.19-.93-2.9-1.08.24-2.01.63-2.94,1.18.16.31.08.7.47.94.62,0,1,.15,1.55-.16.08.7.23,1.79-.46,2.18-.54.31.08.55.08.94.31,1.02,1.31,1.72,1.24,2.97.39.7.62,1.72,1.16,2.42-1.55-1.33-2.16-2.97-3.4-4.77-.23-.63-.23-1.8-1.31-1.33-1.16.78-2.79.7-3.33,2.18.08.16.16.31.39.24.15-.31.38-.16.77-.24.16-.15.47-.08.7-.15-.23,1.17-1.08,2.03-2.24,2.34-.39.55-.39,1.25-.62,1.88-.93,1.1-1.24,3.2-1.63,3.52.38-.94-.85-.55-.16-1.25.93-1.49.62-3.52,1.16-5.16-.69-.94-3.48,1.33-2.16-1.25.15-.16-.08-.39-.16-.55-.54-.08-.93.16-1.47.39-.03-.11-.04-.21-.04-.3-.04.02-.08.04-.11.07l-.54.31c-.08.7-.08,1.48-.08,2.27,0,3.13.42,6.15,1.2,9.01-.09.03-.18.07-.27.12-.21.09-.4.2-.57.33-.35-.3-.78-.5-1.22-.64-.7-2.82-1.07-5.77-1.07-8.82ZM68.9,24.86v.31c-.16,0-.23,0-.31.08l.31-.39ZM11.57,54.91c-1.01,0-1.87-.21-2.33-.56-.08-.05-.15-.12-.21-.2-.13-.17-.18-.36-.13-.55l1.47-5.71c.05-.2.21-.39.44-.55.58-.42,1.65-.7,2.85-.7.21,0,.41.01.6.03.74.07,1.34.26,1.71.56.08.05.14.12.19.18.01.01.02.02.02.03.11.14.16.3.15.47,0,.04,0,.08-.01.11l-.7,2.7-.76,2.93c-.05.2-.21.38-.46.56-.6.41-1.69.7-2.83.7ZM6,57.49c-.33,0-.62-.11-.78-.3-.11-.13-.15-.29-.11-.47l1.66-6.12h-1.85l-1.08,4.22H1.75l1.89-7.38-.28-.75h3.49c.97,0,1.82.21,2.29.55.1.07.18.14.24.22.13.17.18.36.13.54l-.31,1.17c-.07.22-.27.42-.67.68.25.18.35.44.28.73l-1.07,4.06-.56,2.12c-.08.42-.56.71-1.19.71ZM18.38,55.04c-.25,0-.5-.02-.73-.04-.69-.08-1.28-.27-1.65-.54-.1-.08-.19-.15-.25-.24-.16-.2-.21-.43-.16-.65l.47-1.81.69-2.68.31-1.23c.06-.24.25-.47.54-.66.07-.05.14-.09.21-.13.08-.04.17-.09.27-.12.63-.28,1.48-.44,2.4-.44,1.12,0,2.07.28,2.52.73,0,0,0,0,0,0,.03.03.05.06.08.09.18.22.24.47.19.73l-.29,1.05h-2.37l.31-1.1h-1.57l-.37,1.46-.12.47-.66,2.57c.16.34.34.68.52,1.02h.8l.31-1.1h2.28l-.31,1.25c-.05.2-.2.39-.41.56,0,0-.02.01-.02.02-.07.06-.16.11-.24.17-.41.24-.98.43-1.63.53-.35.05-.73.09-1.11.09ZM63.88,68.22c-.35.18-.72.36-1.08.53-.39.18-.78.36-1.18.53-.21.09-.41.17-.62.25-.22.09-.43.17-.65.25-.22.08-.45.16-.67.24-.48.17-.96.33-1.45.47-1.11.34-2.25.62-3.41.83-.62.12-1.24.22-1.87.3-1.42.18-2.86.28-4.33.28-11.89,0-22.36-6.28-28.45-15.83.27-.07.54-.14.79-.23l-.09.35h1.73c5.84,8.31,15.32,13.69,26.01,13.69s20.24-5.38,26.08-13.69h2.29c-3.27,5.09-7.8,9.25-13.13,12.02Z"/>
      <polygon points="50.25 53.66 52.1 53.66 53.59 47.88 51.74 47.88 50.25 53.66"/>
      <polygon points="79.12 47.88 78.94 48.59 78.72 49.44 80.39 49.44 80.49 49.44 80.56 49.17 80.76 48.39 80.89 47.88 79.19 47.88 79.12 47.88"/>
    </g>
  </g>
</svg>