<?xml version="1.0" encoding="UTF-8"?>
<svg id="Layer_2" data-name="Layer 2" xmlns="http://www.w3.org/2000/svg" viewBox="0 0 229.25 73.55">
  <g id="Layer_2-2" data-name="Layer 2">
    <path d="M175.33,7.22l-15.39,26.29h-13.39l15.39-26.29h-14.61l-15.39,26.29h-16.07l-2.15-20.79-12.18,20.79h-13.4L107.77,0h16.25l2.12,20.53L138.16,0h52.86l-4.23,7.22h-11.47ZM87.95,0h-12.45l-38.21,33.51h50.65V0ZM74.75,26.29h-15.82l16.23-14.23-.41,14.23ZM218.38,0h-12.45l-38.21,33.51h50.65V0ZM205.19,26.29h-15.82l16.22-14.23-.41,14.23ZM11.93,13.14c-2.32,3.97-1.01,7.19,2.92,7.22h15.89l-3.47,5.92H4.23l-4.23,7.22h29.22c3.99,0,9.12-3.23,11.45-7.22h0l3.46-5.92h0c2.34-3.99,1-7.22-2.99-7.22h-15.83l3.47-5.92h23.05l4.23-7.22h-29.22c-3.99,0-9.12,3.24-11.45,7.22l-3.47,5.92ZM127.74,66.31c-2.32,3.97-1.01,7.18,2.92,7.22h24.71c3.99,0,9.12-3.24,11.45-7.22h-.01l11.16-19.06h22.65l-30.7,26.29h38.22l4.23-7.22h-17.04l28.7-26.29h-55.21s-15.39,26.29-15.39,26.29h-12.28l15.39-26.29h-13.39l-15.39,26.29ZM60.94,66.31l11.16-19.06h19.1l4.23-7.22h-25.27c-3.99,0-9.12,3.24-11.45,7.22l-11.16,19.06h0v.03c-2.33,3.96-1.03,7.19,2.9,7.22h25.35l4.25-7.25h-19.1ZM101.11,40.02l-19.63,33.51h13.39l6.47-11.06h2.68l4.57,11.06h14.11l-5.56-11.06h.03c3.99,0,9.12-3.23,11.45-7.22h0l4.69-8.01h0c2.34-3.99,1-7.22-2.99-7.22h-29.22ZM115.23,55.25h-9.65l4.69-8.01h9.66l-4.69,8.01ZM223.81.53h-1.45v3.06h-.84V.53h-1.44v-.53h3.73v.53ZM224.48,0h1.23l.96,2.17c.13.3.19.51.19.51h.01s.06-.2.19-.51l.96-2.16h1.23v3.6h-.83V.69h-.02s-.08.28-.26.69l-.97,2.22h-.66l-.96-2.22c-.18-.41-.26-.69-.26-.69h-.01v2.91h-.78V0Z"/>
  </g>
</svg>