<?xml version="1.0" encoding="UTF-8"?>
<svg id="Layer_2" data-name="Layer 2" xmlns="http://www.w3.org/2000/svg" viewBox="0 0 353.61 72.3">
  <g id="Layer_2-2" data-name="Layer 2">
    <g>
      <path d="M93.38,29.72c-.39.68-.39,1.51,0,2.19.39.68,1.11,1.09,1.9,1.09h24.87c1.9,0,3.66,1.01,4.61,2.66.95,1.64.95,3.67,0,5.32l-6.22,10.8h-57.27l3.43-5.95h37.87l1.89-3.29c.39-.68.39-1.51,0-2.19s-1.11-1.09-1.9-1.09h-24.87c-1.9,0-3.66-1.01-4.61-2.66-.95-1.64-.95-3.67,0-5.32l2.88-5c2.07-3.59,5.89-5.8,10.03-5.8h49.02l-3.43,5.95h-36.3l-1.89,3.29Z"/>
      <path d="M148.05,42.32c-.42.73-.42,1.62,0,2.35.42.73,1.19,1.17,2.03,1.17h20.84l-3.43,5.95h-35.1c-1.9,0-3.66-1.01-4.61-2.66-.95-1.65-.95-3.67,0-5.32l10.09-17.52c2.07-3.59,5.89-5.8,10.03-5.8h37.61l-3.43,5.95h-23.09c-1.12,0-2.15.6-2.71,1.57l-8.25,14.32Z"/>
      <path d="M244.06,23.14c.95,1.64.95,3.67,0,5.32l-10.09,17.52c-2.07,3.59-5.89,5.8-10.03,5.8h-41.38c-1.9,0-3.66-1.01-4.61-2.66-.95-1.65-.95-3.67,0-5.32l10.09-17.52c2.07-3.59,5.89-5.8,10.03-5.8h41.38c1.9,0,3.66,1.01,4.61,2.66ZM198.08,42.55c-.39.68-.39,1.51,0,2.19.39.68,1.11,1.09,1.9,1.09h12.87c1.12,0,2.15-.6,2.71-1.57l8.25-14.32c.42-.73.42-1.62,0-2.35-.42-.73-1.19-1.17-2.03-1.17h-12.6c-1.12,0-2.15.6-2.71,1.57l-8.38,14.55Z"/>
      <polygon points="298.73 26.43 284.64 26.43 270.03 51.78 250.63 51.78 265.23 26.43 247.89 26.43 251.32 20.48 302.15 20.48 298.73 26.43"/>
      <polygon points="321.49 51.78 302.09 51.78 316.69 26.43 303.42 26.43 306.85 20.48 353.61 20.48 350.19 26.43 336.09 26.43 321.49 51.78"/>
      <path d="M51.33,34.4c2.78,4.84,2.78,10.79,0,15.62l-10.12,17.58c-1.68,2.91-4.78,4.7-8.14,4.7H5.63l8-13.88h14.5c1.68,0,3.23-.9,4.07-2.35l4.93-8.56c1.11-1.93,1.11-4.32,0-6.25l-5.01-8.69c-1.11-1.93-1.11-4.31,0-6.25l7.28-12.63,11.93,20.71Z"/>
      <path d="M39.4,13.68h-13.72c-1.68,0-3.23.9-4.07,2.35l-6.22,10.8c-.56.97-.56,2.16,0,3.12l5.52,9.58c1.11,1.93,1.11,4.31,0,6.25l-7.28,12.63L2.09,38.38c-2.79-4.83-2.79-10.79,0-15.62L13.39,3.14c1.12-1.94,3.19-3.14,5.42-3.14h28.46l-7.88,13.68Z"/>
    </g>
  </g>
</svg>