<?xml version="1.0" encoding="UTF-8"?>
<svg id="Layer_2" data-name="Layer 2" xmlns="http://www.w3.org/2000/svg" viewBox="0 0 257.71 73.55">
  <defs>
    <style>
      .cls-1 {
        fill: #231f20;
      }
    </style>
  </defs>
  <g id="Layer_2-2" data-name="Layer 2">
    <g>
      <path class="cls-1" d="M14.19,10.67s.04-.18.2-.16c.16.03.24.05.24.05l.2-.11s0-.38.05-.38c.04,0,.09.07.13-.03.05-.09.07-.2.07-.2,0,0,.12-.09.09-.2-.02-.11-.07-.22-.07-.22,0,0,.17-.07.18-.16s.04-.25.04-.25l-.17-.25-.03-.2.09-.16c.09-.15.13-.17.13-.31s-.02-.2.07-.27c.09-.06.25-.13.33-.2.09-.06.09.14.36-.22.27-.36.04-.38.31-.45.27-.07.49-.02.58-.2.09-.18.09-.23.16-.4.07-.18.09-.34.2-.38.1-.05.6-.11.58-.22-.03-.12.14-.38.17-.56.05-.18.12-.16.18-.2.07-.05.2-.2.31-.25.11-.05.18-.07.2-.21.02-.13-.09-.42.07-.49.16-.07.4-.11.4-.11,0,0-.2-.23.09-.45.29-.22.42-.11.45-.18.02-.06.06-.13.11-.22.04-.09.06-.29.06-.38s-.13-.02,0-.15c.13-.14.09,0,.18-.18.09-.18.22-.22.33-.3.12-.06.2-.13.2-.13l.09-.18.2-.13s.04-.16.04-.27-.04-.2.03-.2c.07,0,.13.09.22,0,.09-.09.27-.04.27-.24s-.05-.32-.05-.41.14-.27.14-.27c0,0-.09-.23-.03-.23.07,0,.2-.03.2-.03,0,0,.07.11.23.1.16-.03.22-.03.22-.03,0,0,.09.07.25.13.16.07.38.16.38.23s.04.11,0,.25c-.05.13.24.65.22.74-.02.09-.02.47-.02.47,0,0-.13.32-.11.45.02.14.06.27.04.36-.02.09,0-.21-.09.24-.09.45-.14.4-.11.56.02.16.18.31.18.42s.07.27.04.38c-.02.11-.04.07-.11.29-.07.22.18.31.2.42.03.11.25.27.18.45-.07.18-.09.34-.09.34,0,0,.05.16.12.29.07.14.22.23.22.23l.07.13.25.85-.02.53-.2.45s.07-.13-.11.16c-.18.29-.72.91-.83,1.03-.11.11-.29.23-.36.36-.07.13-.09.36-.29.54-.2.18-.22.02-.36.36-.13.34-.02.29-.18.49-.16.2-.43.78-.67.89-.25.11-.29.09-.4.27-.11.18-.36.77-.58.96-.22.18-.29.29-.4.42-.11.13-.4.52-.58.67-.18.15-.45.05-.51.34-.07.29.04.51-.12.69-.16.18-.13.27-.29.33-.15.07-.49.13-.54.32-.05.18-.2.38-.2.49s-.18.31-.29.35c-.11.05-.18.22-.18.22l-.14.4s-.22.18-.33.23c-.11.05-.31.14-.36.25-.04.11.07-.03-.06.4-.14.42-.31.6-.31.6,0,0-.04.18-.23.25-.18.07-.29.02-.29.25s.02.31-.05.41c-.07.09-.45.09-.45.09l-.04.54s.18-.18.29.09c.11.27.49.42.49.42l.03-.76h.4c.07,0,.45-.02.45-.02l-.03.2.52-.03v-.36l.02-.38s-.05.02.22,0c.27-.03.39-.07.39-.07,0,0,.07-.06.07-.16s.06-.29.06-.29c0,0,.16-.07.2.02.05.09,0,.13.14.16.13.02.07.18.33-.04.27-.22.14-.18.31-.25.18-.06.16-.13.31-.11.16.02.22-.63.22-.63,0,0,.2-.02.38,0,.18.03.34-.35.47-.44.14-.09.3-.18.49-.27.2-.09.66-.2.83-.31.18-.11.32-.22.38-.36.07-.14-.16-.07.29-.27.45-.2.56-.56.78-.65.23-.09.58-.22.63-.31.04-.09.13-.2.29-.29.16-.09.53-.16.85-.27.31-.11.67-.24.79-.31.1-.07.44-.45.54-.47.09-.02.33-.14.42,0,.09.14.16.2.31.2s.22-.45.55-.45.36.07.65-.02c.3-.09.4-.11.56-.32.16-.2.32-.29.43-.31.11-.03.6-.11.65-.05.04.06.44.63.53.74.1.12,1.8,2.97,2,3.24.2.27.64,1.21.64,1.54s.11.87.07,1.14c-.04.27-.98,1.18-1.07,1.5-.1.32-.58.87-.74,1.16-.16.29-.22.49-.45.85-.22.36-2.41,3.93-2.66,4.27-.24.34-3.8,6.98-3.91,7.25-.11.27-1.57,3.32-1.79,3.69-.23.38-2.17,4.27-2.35,4.72-.18.45-.49,1.64-.65,1.99-.15.36-1.25,3.6-1.45,4.14-.2.53-.27.78-.44.98-.18.2-.36.32-.36.52s.14.65,0,.83c-.13.18-.36.45-.36.67s-.09,1.59-.09,2.01-.02,1.75-.18,2.06c-.16.31-.29.92-.36,1.32-.07.4-.13,4.48-.18,4.97-.04.49.06,1.72.11,2.26.05.54.36,2.19.43,2.42.07.22.58,1.41.7,1.63.11.22.23.47.27.71.05.25.33.29.33.51s.07.4.2.72c.13.31.52.69.68.96.16.26.17.42.17.7s.16.49-.06.56c-.23.06-.42-.04-.47-.13-.05-.09-.33-.32-.42-.58-.1-.28-.2-.72-.2-.72,0,0-.65-.7-.85-.94-.2-.25-.16-.14-.34-.43-.18-.29-.24-.42-.33-.42-.1,0-.16.2-.41.18-.24-.02-.31-.09-.45-.23-.14-.13-.29-.67-.65-.98-.36-.31-.58-.74-.72-.91-.13-.18-.06-.25-.13-.52-.06-.27-.03-.33-.13-.45-.11-.1-.51-.54-.51-.54,0,0-.65-.67-.76-.92-.11-.25-.44-.83-.51-1.01-.07-.18-.38-.65-.4-.74-.03-.09.04-.27-.07-.35-.11-.09-.31.02-.45-.14-.14-.15-.07-.37-.23-.49-.16-.11-.32-.18-.47-.35-.16-.18-.36-.5-.45-.65-.09-.15.04-.2-.23-.44-.26-.25-.31-.27-.35-.47-.05-.2-.03-.83-.07-1.16-.05-.34-.23-.54-.23-.54l.26-.31s-.13-.4-.1-.65c.02-.25-.05-1.72-.09-1.92-.04-.2-.07-.38-.13-.65-.07-.27-.2-.25-.07-.47.13-.22.07-.29.24-.29s.21-.18.36.05c.16.22.4.4.4.4,0,0,.42.02.45-.1.02-.11-.09-.4-.23-.51-.13-.12-.33.02-.29-.3q.05-.31.11-.4c.07-.09.07-.54.07-.54,0,0-.42-.02-.53-.07-.11-.04-.19-.29-.19-.47,0-.18.14-.21.23-.3.09-.09.27-.14.36-.32.08-.18.24-.33.2-.55-.05-.23,0-.85,0-.85,0,0,.36-.2.38-.29q.02-.09.05-.27c.03-.17-.05-1-.02-1.18.02-.18.09-.47.29-.87.2-.4.38-.85.38-1.16s-.05-.38.13-.56c.18-.18.22-.25.24-.54.03-.29-.02-.36.07-.38.09-.02.38-.04.38-.04l.05.56.69-.07s-.07-.96-.11-1.23c-.05-.27-.09-.18.04-.74.13-.56.07-1.52.07-1.52,0,0,.55.04.6-.04.04-.09.18-.74.18-.98s0-.63.02-.9c.02-.27.35-.24.35-.24l.19.13v.69l.31-.03s.09-.22.11-.36c.02-.13-.02-.22.13-.18.15.05.31.16.34.23.02.07.44.12.44.12,0,0,.14-.59-.09-.72-.22-.14-.31-.07-.51-.36-.2-.29-.04-.61-.22-.67-.17-.07-.49-.2-.49-.2v-.25s.47.03.56,0c.09-.02.49-.02.49-.02,0,0-.09-.58-.11-.67-.02-.09-.18-.43-.18-.43l-.02-.67.54.02s.14.49.18.6c.05.11.27.34.38.38.11.05.18.05.32.09.13.04.26.04.26.13s.23.45.23.45l.2.09h.31s-.17-.3-.22-.47c-.04-.18-.09-.56-.16-.87-.06-.31-.02-.83-.11-1-.08-.18.03-.2-.22-.38-.25-.18-.29-.2-.29-.38s-.03-.76-.03-.76l.41.07s.09.04.09.23.23.18.38.13c.16-.05.42-.25.47-.4.04-.16.18-.25.13-.41-.04-.15,0-.06-.13-.35-.13-.29-.22-.56-.22-.7,0-.13.02-.42.02-.65s-.12-.38,0-.38.65-.02.65-.02c0,0,.2-.2.22-.05.02.16.05.25.05.25l.29-.11s.14-.23.09-.4c-.04-.18-.16-.29-.2-.43-.05-.13-.07-.76-.07-.89s.22-.4.22-.4c0,0-.05-.31.04-.35.09-.05.42-.11.42-.11l.2-1.03.4-.11s.09-.63.11-.69c.02-.07.31-.39.31-.39l-.06-.35s-.4-.03-.44.04c-.05.07-.41.34-.68.47-.27.13-2.12,1.4-2.32,1.58-.21.18-.65.54-.97.74-.31.2-.65.29-.8.49-.15.2-.04.22-.33.47-.29.25-.49.7-.74.81-.24.11-.69.33-.83.36-.13.02-.18.16-.29.27-.11.11-.07.02-.18.22-.11.2.2-.09-.16.23-.36.31-1.17.51-1.39.69-.22.18-.75.58-.98.87-.22.29-.78.8-1.14,1.05-.35.24-.17.15-.64.53-.47.38-.58.49-.78.62-.2.13-.34.13-.54.22-.2.09-.65.11-.65.11,0,0-.27-.22-.49-.34-.22-.11-2.06-1.99-2.3-2.19-.25-.2-1.5-1.93-1.63-2.11-.13-.18-.74-.85-.8-.98-.07-.13-.42-.67-.33-1.3.09-.62.83-2.08.98-2.3.15-.23.24-.58.33-.69.1-.11.4-.25.54-.36.14-.11.25,0,.27-.24.02-.25.07-.6.09-.81q.02-.2.18-.25c.15-.05.34-.14.34-.14,0,0,.15.4.38.36.22-.05.53-.18.53-.18,0,0,.27-.11.09-.25-.17-.13-.31-.29-.4-.49-.09-.2-.15-.74-.11-.88.04-.13.22-.31.22-.31,0,0,.27-.16.36-.29.09-.13.18-.38.18-.16s.02.34.02.47.35.34.35.34c0,0,.42-.13.4-.22-.02-.09-.18-.24-.29-.4-.11-.16-.31-.13-.11-.31.2-.18.47-.25.47-.25.16-.15.43-.35.43-.55s.2-.07.11-.47c-.09-.4-.11-.89-.11-.89,0,0-.25-.09.02-.13.27-.05.47-.16.47-.16l.09.36.42.16s-.15-.74-.06-.9c.09-.16.02-.2.22-.36.2-.16.58-.38.58-.38,0,0-.24-.14-.24-.4s.04-.4.04-.4l.78-.29s.09-.05.18-.16c.09-.11.05-.22.18-.18.14.04.6-.07.6-.07,0,0,.18-.6.15-.69-.02-.09-.24-.13-.2-.33.04-.2.16-.34.32-.56.15-.23.13-.26.22-.29.09-.02.36.12.36.12l.25-.02s.11-.45.2-.67c.09-.23.31-.45.31-.45,0,0,.35-.53.47-.63.11-.09.11-.2.34-.4.23-.2.58-.58.58-.58,0,0,.33-.36.33-.47v-.49c0-.23-.16-.2.12-.38.27-.18.33-.11.51-.33.17-.23.17-.32.33-.38.15-.07.29.09.29.09l.12.38s.29.05.41-.02c.11-.06.42-.11.4-.22-.02-.11-.18-.2-.22-.38-.05-.18-.07-.6-.07-.83s.43-.34.43-.34"/>
      <path class="cls-1" d="M150,31l-4.29,7.25h3.54l.76-7.25ZM77.09,24.85h-3.4l-6.4,14.87c.99-.15,3.93-.58,4.66-.79.89-.27,1.57-1.12,2.57-3.31,1.02-2.17,2.57-6.07,3.36-8.1.79-1.99.08-2.67-.79-2.67ZM212,22.74c1.82,0,2.67,1.57.89,3.38-1.82,1.84-20.04,21.74-20.66,22.43-.62.7-.91,1.39.21,1.39l11.04-.02-.97,2.53h-17.17c-2.01,0-2.75-1.37-.79-3.46,1.92-2.07,20.4-21.99,21.1-22.78.74-.77.52-1.12-.16-1.12h-10.04l.87-2.36h15.66ZM175.2,22.78s-9.96,23.65-10.73,25.28c-.73,1.66.23,1.92,1.14,1.92h6.52l-.97,2.51-11.84.02c-2.2,0-2.98-1.49-1.82-4.25,1.2-2.78,11-25.47,11-25.47h6.69ZM156.89,22.78l-2.52,29.72h-6.57l1.27-12.07h-5.41l-7.97,12.07-6.34.02s18.2-26.88,18.83-27.83c.66-.95,2.05-1.91,2.98-1.91h5.72ZM139.37,22.78l-12.65,29.74h-6.92l12.88-29.74h6.69ZM193.24,22.76l-12.65,29.72-6.96.02,12.92-29.74h6.69ZM129.12,22.78l-.97,2.13h-8.78c-2.2,0-2.44.95-2.92,1.99s-8.68,20.25-9.19,21.29c-.5,1.02-.44,1.82,1,1.82h8.94l-.79,2.53h-14.21c-2.54,0-3.04-1.64-2.13-3.83.93-2.17,9.48-22.01,10.13-23.71.7-1.76,2.57-2.21,4.6-2.22h14.31ZM108.27,22.8l-1.04,2.01-7.95.02c-2.21,0-2.96.6-3.74,2.26-.77,1.64-3.98,9.32-3.98,9.32h8.55l-1.12,2.15h-8.28s-3.17,7.31-3.98,9.13c-.77,1.84-.6,2.34.74,2.34h8.97l-1.06,2.51h-13.96c-1.95,0-3.23-.93-1.99-3.89,1.2-2.98,8.7-20.44,9.74-22.78,1.01-2.38,2.63-3.08,4.99-3.08h14.12ZM235.89,22.74l-1.04,2.01-7.95.02c-2.2,0-2.94.6-3.71,2.26-.75,1.62-3.96,9.32-3.96,9.32l8.55-.02-1.16,2.15h-8.26s-3.21,7.31-3.98,9.15c-.77,1.84-.6,2.34.74,2.34h8.93l-1.04,2.5-13.92.02c-1.95,0-3.25-.93-2.03-3.89,1.22-2.96,8.68-20.44,9.73-22.78,1.04-2.38,2.67-3.07,5.03-3.07h14.1ZM82.55,22.8c2.45,0,3.56,1.86,2.55,4.57-1,2.69-2.13,5.12-3.83,8.92-1.68,3.85-2.82,4.27-6.04,4.72-3.17.45-9.15,1.26-9.15,1.26l-4.5,10.31h-6.54l13.17-29.74,14.33-.02ZM64.72,22.82l-1.01,2.07-9.55-.04c-1.28,0-1.99.77-2.67,1.91-.68,1.12-.89,1.99-1.55,3.39-.62,1.39-.6,2.86.62,3.83,1.2.95,2.61,2.3,3.87,3.37,2.32,2.03,2.94,2.96,1.09,7.23-1.43,3.29-.7,1.84-1.97,4.6-1.26,2.78-2.71,3.38-4.91,3.4h-15.12l1.31-2.51h9.36c1.7,0,2.17-.89,2.9-2.36.73-1.47.97-1.91,1.9-4.08.91-2.18,1.16-3.21-.1-4.45-1.22-1.22-2.88-2.59-4.74-4.23-1.86-1.66-1.78-2.11-.83-4.43.95-2.36,1.31-3.13,2.22-5.3.93-2.19,2.67-2.38,4.45-2.38l14.74-.02ZM238.59,49.93c1.7,0,2.15-.87,2.77-2.09.62-1.22,7.93-18.08,8.74-20.17.83-2.11.23-2.61-1.04-2.61h-4.37l-10.62,24.87h4.52ZM226.32,52.41l12.76-29.78,16.21-.02c2.36,0,2.82,2.44,2.15,4.15-.7,1.76-8.49,19.73-9.44,21.91-.91,2.16-2.26,3.71-4.54,3.73h-17.13Z"/>
    </g>
  </g>
</svg>