<?xml version="1.0" encoding="UTF-8"?>
<svg id="Layer_2" data-name="Layer 2" xmlns="http://www.w3.org/2000/svg" viewBox="0 0 353.61 48.52">
  <g id="Layer_2-2" data-name="Layer 2">
    <g>
      <path d="M53.17,17.94c.37-.21,1.63-.32,3.76-.33l13.83-.02,3.3-9.1-9.69.06c-2.77,0-7.86,1.06-9.01,2.24l.78-2.28-11.79.02L47.39.16l-38.18.05C4.19,1.47,1.22,6.6,0,9.27l16.72.02-9.82,27.09h13.8s9.82-27.11,9.82-27.11h11.56s-9.82,27.08-9.82,27.08l13.8-.02,6.14-16.93c.28-.77.61-1.26.98-1.47"/>
      <path d="M96.05,27.71l-14.28.02c-.87,0-1.16-.4-.87-1.19.32-.88.91-1.32,1.78-1.32l14.28-.02-.91,2.51ZM114.13,11.2c-.69-1.24-2.27-2.04-4.76-2.42-1.51-.21-3.62-.32-6.34-.31l-27.29.03-3.11,8.58,23.2-.03c1.41,0,2.31.08,2.71.25.79.34.96,1.06.51,2.15l-15.14.02c-3.64,0-5.81.03-6.51.07-2.73.13-4.77.62-6.12,1.47-1.51,1.02-2.73,2.82-3.67,5.41l-.48,1.33c-.96,2.65-1.09,4.59-.41,5.82.69,1.24,2.26,2.05,4.72,2.42,1.52.21,3.64.31,6.37.31l28.94-.03,6.98-19.25c.96-2.64,1.09-4.58.41-5.82"/>
      <path d="M159.7,11.3c-.59-1.26-2.03-2.1-4.32-2.52-1.54-.25-3.83-.38-6.86-.38l-7.81.06c-2.69,0-8.32,1.28-9.57,2.46l1.02-2.5-13.8.02-10.09,27.82,13.8-.02,6.14-16.93c.23-.64.51-1.1.84-1.38.33-.28,1.62-.42,3.88-.42h8.28c2.26-.01,3.45.12,3.55.4.1.28.04.74-.2,1.38l-6.14,16.93,13.8-.02,6.98-19.25c.91-2.51,1.07-4.4.49-5.66"/>
      <path d="M201.53,26.29c1.61-4.44-1.51-6.66-9.35-6.65l-16.49.02c-1.18,0-1.65-.36-1.38-1.1.26-.73.99-1.1,2.18-1.1l24.46-.03,3.3-9.1-26.19.03c-2.73,0-4.93.11-6.6.33-2.76.34-4.94,1.15-6.53,2.41-1.59,1.26-2.87,3.21-3.83,5.86l-.9,2.49c-1.34,3.71,2.39,5.56,11.2,5.55l15.6-.02c1.04,0,1.43.37,1.16,1.11-.24.65-.88.98-1.92.98l-28.81.04-3.3,9.1,30-.04c2.77,0,4.97-.11,6.6-.33,2.8-.34,4.99-1.15,6.56-2.41,1.57-1.26,2.84-3.22,3.8-5.86l.47-1.28Z"/>
      <polygon points="222.86 10.85 209.06 10.87 199.89 36.16 213.69 36.14 222.86 10.85"/>
      <polygon points="226.78 .05 212.98 .07 209.98 8.33 223.78 8.31 226.78 .05"/>
      <path d="M242.53,27.01h-6c-1.28.01-1.95.01-2.05.01-.8-.04-1.29-.16-1.47-.35-.18-.19-.13-.68.15-1.45l2.86-7.82h6.79s3.3-9.11,3.3-9.11c-2.68,0-4.95,0-6.81.01L242.31.03l-13.8.02-9.97,27.49c-.93,2.57-1.09,4.48-.48,5.75.61,1.26,2.15,2.08,4.6,2.46,1.5.25,3.69.38,6.55.38h10s3.3-9.11,3.3-9.11Z"/>
      <polygon points="267.45 0 253.65 .02 250.65 8.28 264.45 8.26 267.45 0"/>
      <polygon points="249.73 10.82 240.56 36.11 254.36 36.09 263.53 10.8 249.73 10.82"/>
      <path d="M292.38,19.14l-2.18,6.01c-.23.64-.48,1.07-.74,1.29-.31.35-1.61.52-3.92.52h-8.28c-1.49.01-2.19.01-2.1.01-.75-.04-1.23-.16-1.44-.35-.2-.19-.16-.68.12-1.45l2.18-6.01c.27-.73.57-1.2.92-1.42.35-.22.92-.35,1.7-.39-.09,0,.61,0,2.1,0h8.28c2.31-.01,3.5.13,3.58.41.08.28,0,.75-.23,1.39M307.02,16.78c.97-2.69,1.09-4.65.36-5.88-.73-1.23-2.4-2.02-5.01-2.36-1.47-.21-3.5-.32-6.09-.31l-16.24.02c-2.78,0-4.98.11-6.6.33-2.78.39-4.96,1.21-6.56,2.47-1.59,1.26-2.86,3.19-3.8,5.79l-3.87,10.68c-.94,2.6-1.07,4.53-.4,5.79.68,1.26,2.27,2.08,4.78,2.46,1.47.21,3.59.31,6.37.31l16.24-.02c2.82,0,5.04-.11,6.67-.33,2.73-.38,4.89-1.21,6.49-2.47,1.59-1.26,2.86-3.19,3.8-5.79l3.88-10.68Z"/>
      <path d="M353.27,11.07c-.59-1.26-2.02-2.1-4.32-2.52-1.54-.25-3.83-.38-6.86-.38l-6.66.06c-2.69,0-9.43,1.5-10.68,2.68l.98-2.72-13.8.02-10.09,27.82,13.8-.02,6.14-16.93c.23-.64.51-1.1.84-1.38.33-.28,1.62-.42,3.89-.42h8.28c2.26-.01,3.45.12,3.55.4.11.28.04.74-.2,1.38l-6.14,16.93,13.8-.02,6.98-19.25c.91-2.51,1.07-4.4.49-5.66"/>
      <path d="M14.21,46.57c0,.24-.07.41-.22.5-.15.09-.43.14-.85.14h-4.87s0-1.83,0-1.83h4.87c.42,0,.7.04.85.14.15.1.22.26.22.5v.56ZM8.26,42.49h4.87c.39,0,.64.03.78.11.13.08.2.21.2.4v.67c0,.19-.07.32-.2.4-.14.07-.4.11-.77.11h-4.87s0-1.69,0-1.69ZM14.73,44.79c.49-.07.87-.21,1.13-.42.26-.21.39-.48.39-.81v-.86c0-.5-.17-.86-.5-1.08-.33-.22-.87-.33-1.62-.33H6.12s0,7.23,0,7.23h7.41c.93-.01,1.62-.13,2.08-.36.46-.24.69-.59.69-1.07v-.93c0-.37-.14-.67-.42-.91-.28-.24-.67-.39-1.17-.46"/>
      <rect x="30.98" y="41.27" width="2.17" height="7.21"/>
      <path d="M55.79,41.24h-5.59c-.91,0-1.52.13-1.83.37-.32.24-.48.69-.48,1.35v3.79c0,.67.17,1.12.49,1.36.32.24.93.36,1.83.36h5.59c.91,0,1.53-.13,1.86-.38.32-.24.48-.69.48-1.36v-.83s-2.2-.35-2.2-.35v1.51s-5.87,0-5.87,0v-4.48s5.87,0,5.87,0v1.33s2.2-.26,2.2-.26v-.7c0-.65-.16-1.1-.48-1.35-.32-.24-.94-.36-1.86-.36"/>
      <polygon points="76.56 43.92 73.37 41.22 70.44 41.23 75.31 45.2 75.32 48.44 77.49 48.44 77.48 45.16 82.35 41.22 79.78 41.22 76.56 43.92"/>
      <path d="M102.36,41.19h-5.59c-.9.01-1.52.13-1.83.38-.32.24-.48.69-.48,1.34v3.79c0,.67.17,1.13.49,1.36.32.24.93.36,1.83.36h5.59c.91-.01,1.53-.13,1.86-.37.32-.25.48-.7.48-1.36v-.83l-2.2-.35v1.51s-5.88,0-5.88,0v-4.48s5.87,0,5.87,0v1.34s2.2-.26,2.2-.26v-.7c0-.66-.16-1.1-.48-1.35-.32-.24-.94-.36-1.86-.36"/>
      <polygon points="121.44 41.17 119.24 41.17 119.25 48.39 128.45 48.37 128.45 47.04 121.45 47.05 121.44 41.17"/>
      <polygon points="144.07 45.24 148.38 45.23 148.38 43.98 144.07 43.99 144.07 42.41 151.43 42.41 151.43 41.13 141.87 41.14 141.88 48.36 151.56 48.35 151.56 47.01 144.08 47.02 144.07 45.24"/>
      <path d="M192.53,41.08h-5.59c-.9,0-1.51.13-1.83.37-.32.24-.48.69-.48,1.35v3.78c0,.67.17,1.13.49,1.37.32.24.93.35,1.83.35h5.59c.92,0,1.53-.13,1.86-.37.32-.24.48-.69.48-1.36v-.83s-2.2-.35-2.2-.35v1.51s-5.88,0-5.88,0v-4.48s5.87,0,5.87,0v1.34s2.2-.26,2.2-.26v-.71c0-.66-.16-1.1-.48-1.34-.32-.24-.94-.36-1.86-.36"/>
      <path d="M218.6,46.87h-7.21s0-4.47,0-4.47h7.22s0,4.47,0,4.47ZM218.44,41.05h-6.92c-.91.01-1.52.13-1.84.37-.32.24-.47.69-.47,1.34v3.79c0,.67.16,1.13.48,1.36.31.24.93.36,1.84.36h6.93c.9,0,1.51-.13,1.83-.37.32-.24.48-.69.48-1.37v-3.79c0-.65-.16-1.1-.47-1.34-.31-.24-.93-.36-1.85-.36"/>
      <polygon points="241.6 45.3 237.24 41.03 235.49 41.03 235.5 48.24 237.25 48.24 237.24 43.39 241.28 47.37 241.7 47.37 245.67 43.27 245.68 48.23 247.7 48.23 247.69 41.01 245.94 41.01 241.6 45.3"/>
      <path d="M270.77,43.57c0,.21-.07.37-.21.46-.14.09-.4.13-.78.14h-4.98s0-1.92,0-1.92h4.98c.38,0,.64.04.78.13.14.09.21.24.21.44v.76ZM272.3,41.32c-.33-.22-.86-.33-1.6-.33h-8.04s0,7.23,0,7.23h2.14s0-2.8,0-2.8h5.91c.73,0,1.26-.12,1.59-.34.33-.22.49-.58.49-1.07v-1.62c0-.49-.17-.85-.49-1.07"/>
      <path d="M288.61,45.27l2-3,2.09,3h-4.09ZM289.67,40.96l-5.29,7.22h2.18s1.12-1.61,1.12-1.61h5.9s1.13,1.59,1.13,1.59h2.44l-5.39-7.21h-2.09Z"/>
      <polygon points="319.45 45.72 311.86 40.94 310.36 40.94 310.37 48.15 312.36 48.15 312.35 43.28 319.91 48.14 321.41 48.14 321.41 40.92 319.45 40.93 319.45 45.72"/>
      <polygon points="341 43.6 337.82 40.9 334.89 40.91 339.76 44.88 339.76 48.12 341.93 48.11 341.93 44.84 346.79 40.9 344.23 40.9 341 43.6"/>
    </g>
  </g>
</svg>