<?xml version="1.0" encoding="UTF-8"?>
<svg id="Layer_2" data-name="Layer 2" xmlns="http://www.w3.org/2000/svg" viewBox="0 0 353.61 42.1">
  <g id="Layer_2-2" data-name="Layer 2">
    <g>
      <polygon points="292.73 0 263.03 0 247.81 42.1 277.51 42.1 292.73 0"/>
      <polygon points="287.33 19.64 304.88 42.1 339.13 42.1 319.49 19.88 353.61 0 318.75 0 287.33 19.64"/>
      <path d="M253.58,8.1l2.95-8.1h-75.98l-10.43,28.97c-.61,1.84-.74,3.93.61,5.52.49.49,3.8,4.42,4.54,5.16,1.23,1.35,2.7,2.45,5.16,2.45h60.88l2.95-7.98h-42.59c-2.58,0-3.8-1.96-3.19-3.93l1.96-5.28h47.13l2.95-8.1h-47.13l3.19-8.71s47.01,0,47.01,0Z"/>
      <path d="M166.31,0h-75.61l-15.22,42.1h28.97l12.27-34h21.6c2.33,0,3.19,1.72,2.7,3.31-.49,1.72-1.23,3.8-1.84,5.03-.74,1.72-2.45,3.07-5.03,3.07h-20.25l17.55,22.46h33.26l-14.97-16.82h8.96c4.17,0,6.63-2.21,7.73-5.03,1.23-3.19,4.05-10.92,4.91-13.5,1.6-4.05-.86-6.63-5.03-6.63"/>
      <polygon points="85.43 0 2.95 0 0 8.1 28.48 8.1 16.2 42.1 44.19 42.1 56.46 8.1 82.6 8.1 85.43 0"/>
    </g>
  </g>
</svg>