<?xml version="1.0" encoding="UTF-8"?>
<svg id="Layer_2" data-name="Layer 2" xmlns="http://www.w3.org/2000/svg" viewBox="0 0 353.61 36.27">
  <defs>
    <style>
      .cls-1 {
        fill-rule: evenodd;
      }
    </style>
  </defs>
  <g id="Layer_2-2" data-name="Layer 2">
    <g>
      <polygon class="cls-1" points="0 0 19.43 22.02 12.09 36.27 47.49 36.27 55.27 22.88 107.08 0 68.65 0 45.77 11.23 38.86 0 0 0 0 0"/>
      <polygon class="cls-1" points="199.91 0 117.01 0 94.12 36.27 176.59 36.27 182.2 27.63 135.57 27.63 138.59 22.45 177.02 22.45 182.2 13.82 144.21 13.82 147.23 7.77 193.43 7.77 199.91 0 199.91 0"/>
      <polygon class="cls-1" points="304.39 0 209.4 0 203.79 9.07 230.99 9.07 216.74 35.84 252.15 35.84 269.42 9.07 297.91 9.07 304.39 0 304.39 0"/>
      <polygon class="cls-1" points="353.61 0 316.91 0 294.03 36.27 330.73 36.27 353.61 0 353.61 0"/>
    </g>
  </g>
</svg>