<?xml version="1.0" encoding="UTF-8"?>
<svg id="Layer_2" data-name="Layer 2" xmlns="http://www.w3.org/2000/svg" viewBox="0 0 93.71 73.42">
  <defs>
    <style>
      .cls-1 {
        fill-rule: evenodd;
        stroke: #231f20;
        stroke-miterlimit: 22.93;
        stroke-width: .07px;
      }
    </style>
  </defs>
  <g id="Layer_2-2" data-name="Layer 2">
    <path class="cls-1" d="M.07.04l34.92,52.38,8.12-13.32-7.12-10.95,9.42-14.24,14.09.15-14.86,23.17,3.56-.8-17,26.8,37.06-30.98-4.29,1.03,12.98-19.22h7.47L93.65.04l-56.48.02-9.83,14.86L17.39.06.07.04H.07ZM2.76,73.38h.69v-1.57l.88-3.16h-.66l-.53,2.16-.53-2.16h-.72l.88,3.16v1.57h0ZM89.79,69.73h0c0,1.35,1.35,1.53,1.35,2.51,0,.34-.14.46-.36.46s-.36-.12-.36-.46v-.37h-.65v.32c0,.76.35,1.19,1.03,1.19s1.03-.43,1.03-1.19c0-1.35-1.35-1.53-1.35-2.51,0-.34.13-.47.35-.47s.35.13.35.47v.23h.65v-.18c0-.76-.35-1.19-1.02-1.19s-1.02.43-1.02,1.19h0ZM83.08,69.33h1.2v-.68h-1.89v4.73h1.89v-.68h-1.2v-1.38h.95v-.68h-.95v-1.32h0ZM75.95,73.38h.69v-4.73h-.69v4.73h0ZM70.32,73.38h0c-.07-.18-.08-.34-.08-.57v-.73c0-.49-.11-.85-.46-1.01.31-.16.45-.47.45-.96v-.37c0-.73-.31-1.09-1.03-1.09h-1.05v4.73h.69v-1.93h.24c.31,0,.45.16.45.6v.74c0,.39.03.46.06.58h.71ZM69.19,69.33h0c.25,0,.35.15.35.49v.47c0,.38-.16.5-.42.5h-.27v-1.45h.33ZM60.55,69.33h.72v4.05h.69v-4.05h.72v-.68h-2.14v.68h0ZM53.13,69.73h0c0,1.35,1.35,1.53,1.35,2.51,0,.34-.14.46-.36.46s-.36-.12-.36-.46v-.37h-.65v.32c0,.76.35,1.19,1.03,1.19s1.03-.43,1.03-1.19c0-1.35-1.35-1.53-1.35-2.51,0-.34.13-.47.35-.47s.35.13.35.47v.23h.65v-.18c0-.76-.35-1.19-1.02-1.19s-1.02.43-1.02,1.19h0ZM45.48,68.59h0v3.6c0,.76.35,1.19,1.03,1.19s1.03-.43,1.03-1.19v-3.6h-.65v3.65c0,.34-.14.46-.36.46s-.36-.12-.36-.46v-3.65h-.69ZM37.74,73.38h1.1c.69,0,1.03-.41,1.03-1.17v-2.39c0-.76-.34-1.17-1.03-1.17h-1.1v4.73h0ZM38.82,69.33h0c.22,0,.35.12.35.46v2.46c0,.34-.13.46-.35.46h-.39v-3.38h.39ZM31.31,73.38h.71v-4.73h-.62v2.83l-.71-2.83h-.87v4.73h.62v-3.43l.86,3.43h0ZM23.48,73.38h.69v-4.73h-.69v4.73h0ZM9.58,69.33h.72v4.05h.69v-4.05h.72v-.68h-2.14v.68h0Z"/>
  </g>
</svg>